/* XPM */
static char * controlpanel_xpm[] = {
"32 32 8 1",
" 	c None",
".	c #555555",
"+	c #FFFFFF",
"@	c #FEFEFE",
"#	c #E3E1E0",
"$	c #EDEBEA",
"%	c #969696",
"&	c #F7F5F4",
"                                ",
"                                ",
"                                ",
"                                ",
"                                ",
"                                ",
"  ............................  ",
"  .+@@@@@@@@++++@@@@@+++++++#.  ",
"  .+$$$$$$$$$$$$$$$$$$$$$$$$#.  ",
"  .+$%%%%%%%%%%%%%%%%%%%%%%$#.  ",
"  .+$%####################%$#.  ",
"  .+$%####..########..####%$#.  ",
"  .+$%##......######..####%$#.  ",
"  .+$%##.+@@$.######..####%$#.  ",
"  .+$%##.+&&$.####......##%$#.  ",
"  .+$%##.+&&$.####.$$$+.##%$#.  ",
"  .+$%##.+$$$.####.$&&+.##%$#.  ",
"  .+$%##......####.$&&+.##%$#.  ",
"  .+$%####..######.$@@+.##%$#.  ",
"  .+$%####..######......##%$#.  ",
"  .+$%####..########..####%$#.  ",
"  .+$%####################%$#.  ",
"  .+$%%%%%%%%%%%%%%%%%%%%%%$#.  ",
"  .+$$$$$$$$$$$$$$$$$$$$$$$$#.  ",
"  .##########################.  ",
"  ............................  ",
"                                ",
"                                ",
"                                ",
"                                ",
"                                ",
"                                "};
