/* XPM */
static char * maximize_xpm[] = {
"32 32 128 2",
"  	c None",
". 	c #224B8A",
"+ 	c #2B538D",
"@ 	c #2A538D",
"# 	c #244D88",
"$ 	c #315891",
"% 	c #7194BF",
"& 	c #769AC6",
"* 	c #7599C5",
"= 	c #759AC6",
"- 	c #7296C1",
"; 	c #335A93",
"> 	c #5075A6",
", 	c #7BA2CE",
"' 	c #5C8BC0",
") 	c #5E8DC2",
"! 	c #7AA2CE",
"~ 	c #5579AA",
"{ 	c #5176A8",
"] 	c #82A9D3",
"^ 	c #6997C9",
"/ 	c #6B98CA",
"( 	c #81A9D4",
"_ 	c #5A7DAC",
": 	c #5177AA",
"< 	c #86AED8",
"[ 	c #6C9CCD",
"} 	c #6E9DCE",
"| 	c #6C9BCD",
"1 	c #86AED9",
"2 	c #5B7EAE",
"3 	c #91A0B2",
"4 	c #CFDCEA",
"5 	c #BECFE1",
"6 	c #BFD0E1",
"7 	c #CFDDEC",
"8 	c #98A6B6",
"9 	c #BDBCB6",
"0 	c #FDFBF8",
"a 	c #F5F3EE",
"b 	c #F5F2EE",
"c 	c #F5F3ED",
"d 	c #FEFCF8",
"e 	c #C0BFBA",
"f 	c #B8BAB6",
"g 	c #F8F8F7",
"h 	c #EEEEEC",
"i 	c #EEEEEB",
"j 	c #F9F9F7",
"k 	c #BCBDBB",
"l 	c #EDEEEC",
"m 	c #EDEEEB",
"n 	c #F8F9F7",
"o 	c #B8B9B6",
"p 	c #F7F6F5",
"q 	c #ECECEA",
"r 	c #EBECE9",
"s 	c #F7F7F6",
"t 	c #F5F5F4",
"u 	c #EBEBE8",
"v 	c #EAEAE7",
"w 	c #F6F6F4",
"x 	c #BCBDBA",
"y 	c #F4F4F3",
"z 	c #E8E9E5",
"A 	c #E8E9E7",
"B 	c #E7E8E6",
"C 	c #F4F5F3",
"D 	c #B7B9B5",
"E 	c #F2F3F1",
"F 	c #E6E7E4",
"G 	c #E7E8E5",
"H 	c #F3F4F2",
"I 	c #F1F2F0",
"J 	c #E5E6E1",
"K 	c #E6E7E2",
"L 	c #F2F3F0",
"M 	c #F0F1EF",
"N 	c #E2E4E0",
"O 	c #E3E5E1",
"P 	c #F1F2EF",
"Q 	c #BBBDB9",
"R 	c #B7B8B5",
"S 	c #EFF0EE",
"T 	c #E1E3DF",
"U 	c #F0F1EE",
"V 	c #BBBCB9",
"W 	c #EEEFEB",
"X 	c #E0E1DD",
"Y 	c #E1E2DE",
"Z 	c #EFF0EC",
"` 	c #B7B8B4",
" .	c #ECEEEA",
"..	c #DDE0DB",
"+.	c #DEE1DC",
"@.	c #EDEFEA",
"#.	c #B6B8B4",
"$.	c #EBEDE8",
"%.	c #DCDED8",
"&.	c #DDDFD9",
"*.	c #ECEDE9",
"=.	c #BABCB8",
"-.	c #EAECE7",
";.	c #DBDDD7",
">.	c #BABBB8",
",.	c #E8EBE6",
"'.	c #D8DCD5",
").	c #D9DDD6",
"!.	c #E9ECE7",
"~.	c #B5B7B3",
"{.	c #E7EAE4",
"].	c #D6DAD3",
"^.	c #D7DBD4",
"/.	c #E7EAE5",
"(.	c #B9BBB8",
"_.	c #B0B2AD",
":.	c #ECEEE9",
"<.	c #D6DAD2",
"[.	c #D7DBD3",
"}.	c #949691",
"|.	c #EAECE9",
"1.	c #E9EBE7",
"2.	c #E8EAE6",
"3.	c #9C9E9A",
"4.	c #6F706D",
"5.	c #787A76",
"6.	c #767874",
"7.	c #71726F",
"                                                                ",
"                                                                ",
"                                                                ",
"      . + @ @ @ @ @ @ @ @ @ @ @ @ @ @ @ @ @ @ @ @ @ @ + #       ",
"    $ % & * * * * * * * * * * * * * * * * * * * * * * = - ;     ",
"    > , ' ) ) ) ) ) ) ) ) ) ) ) ) ) ) ) ) ) ) ) ) ) ) ' ! ~     ",
"    { ] ^ / / / / / / / / / / / / / / / / / / / / / / ^ ( _     ",
"    : < [ } } } } } } } } } } } } } } } } } } } } } } | 1 2     ",
"    3 4 5 6 6 6 6 6 6 6 6 6 6 6 6 6 6 6 6 6 6 6 6 6 6 5 7 8     ",
"    9 0 a b b b b b b b b b b b b b b b b b b b b b b c d e     ",
"    f g h h h h h h h h h h h h h h h h h h h h h h h i j k     ",
"    f g h h h h h h h h h h h h h h h h h h h h h h h i j k     ",
"    f g l l l l l l l l l l l l l l l l l l l l l l l m n k     ",
"    o p q q q q q q q q q q q q q q q q q q q q q q q r s k     ",
"    o t u u u u u u u u u u u u u u u u u u u u u u u v w x     ",
"    o y z A A A A A A A A A A A A A A A A A A A A A A B C x     ",
"    D E F G G G G G G G G G G G G G G G G G G G G G G F H x     ",
"    D I J K K K K K K K K K K K K K K K K K K K K K K J L x     ",
"    D M N O O O O O O O O O O O O O O O O O O O O O O N P Q     ",
"    R S T N N N N N N N N N N N N N N N N N N N N N N T U V     ",
"    R W X Y Y Y Y Y Y Y Y Y Y Y Y Y Y Y Y Y Y Y Y Y Y X Z V     ",
"    `  ...+.+.+.+.+.+.+.+.+.+.+.+.+.+.+.+.+.+.+.+.+.+...@.V     ",
"    #.$.%.&.&.&.&.&.&.&.&.&.&.&.&.&.&.&.&.&.&.&.&.&.&.%.*.=.    ",
"    #.-.;.%.%.%.%.%.%.%.%.%.%.%.%.%.%.%.%.%.%.%.%.%.%.;.$.>.    ",
"    #.,.'.).).).).).).).).).).).).).).).).).).).).).).'.!.>.    ",
"    ~.{.].^.^.^.^.^.^.^.^.^.^.^.^.^.^.^.^.^.^.^.^.^.^.]./.(.    ",
"    _.:.<.[.[.[.[.[.[.[.[.[.[.[.[.[.[.[.[.[.[.[.[.[.[.<.-.V     ",
"    }.|.1.2.2.2.2.2.2.2.2.2.2.2.2.2.2.2.2.2.2.2.2.2.2.1.*.3.    ",
"      4.5.6.6.6.6.6.6.6.6.6.6.6.6.6.6.6.6.6.6.6.6.6.6.5.7.      ",
"                                                                ",
"                                                                ",
"                                                                "};
