/* XPM */
static char * moonphase_xpm[] = {
"64 64 171 2",
"  	g None",
". 	g #7A7A7A",
"+ 	g #7E7E7E",
"@ 	g #828282",
"# 	g #858585",
"$ 	g #818181",
"% 	g #747474",
"& 	g #767676",
"* 	g #808080",
"= 	g #8B8B8B",
"- 	g #909090",
"; 	g #949494",
"> 	g #979797",
", 	g #9E9E9E",
"' 	g #A0A0A0",
") 	g #8E8E8E",
"! 	g #888888",
"~ 	g #787878",
"{ 	g #717171",
"] 	g #777777",
"^ 	g #797979",
"/ 	g #7B7B7B",
"( 	g #848484",
"_ 	g #8A8A8A",
": 	g #898989",
"< 	g #878787",
"[ 	g #6C6C6C",
"} 	g #727272",
"| 	g #707070",
"1 	g #6E6E6E",
"2 	g #686868",
"3 	g #696969",
"4 	g #6F6F6F",
"5 	g #757575",
"6 	g #737373",
"7 	g #838383",
"8 	g #8D8D8D",
"9 	g #939393",
"0 	g #969696",
"a 	g #8F8F8F",
"b 	g #666666",
"c 	g #676767",
"d 	g #6A6A6A",
"e 	g #7D7D7D",
"f 	g #7C7C7C",
"g 	g #7F7F7F",
"h 	g #9C9C9C",
"i 	g #545454",
"j 	g #5E5E5E",
"k 	g #575757",
"l 	g #5C5C5C",
"m 	g #999999",
"n 	g #A2A2A2",
"o 	g #8C8C8C",
"p 	g #4D4D4D",
"q 	g #525252",
"r 	g #595959",
"s 	g #868686",
"t 	g #6D6D6D",
"u 	g #6B6B6B",
"v 	g #919191",
"w 	g #959595",
"x 	g #989898",
"y 	g #484848",
"z 	g #494949",
"A 	g #515151",
"B 	g #555555",
"C 	g #606060",
"D 	g #636363",
"E 	g #5D5D5D",
"F 	g #9A9A9A",
"G 	g #A3A3A3",
"H 	g #A8A8A8",
"I 	g #A9A9A9",
"J 	g #A6A6A6",
"K 	g #A5A5A5",
"L 	g #9D9D9D",
"M 	g #424242",
"N 	g #454545",
"O 	g #4F4F4F",
"P 	g #5B5B5B",
"Q 	g #626262",
"R 	g #656565",
"S 	g #9F9F9F",
"T 	g #AEAEAE",
"U 	g #ACACAC",
"V 	g #ABABAB",
"W 	g #929292",
"X 	g #434343",
"Y 	g #4A4A4A",
"Z 	g #616161",
"` 	g #5F5F5F",
" .	g #646464",
"..	g #B5B5B5",
"+.	g #AAAAAA",
"@.	g #ADADAD",
"#.	g #4E4E4E",
"$.	g #565656",
"%.	g #AFAFAF",
"&.	g #A1A1A1",
"*.	g #404040",
"=.	g #414141",
"-.	g #4B4B4B",
";.	g #505050",
">.	g #A4A4A4",
",.	g #444444",
"'.	g #4C4C4C",
").	g #9B9B9B",
"!.	g #3F3F3F",
"~.	g #535353",
"{.	g #585858",
"].	g #B3B3B3",
"^.	g #B0B0B0",
"/.	g #464646",
"(.	g #BABABA",
"_.	g #B7B7B7",
":.	g #B6B6B6",
"<.	g #474747",
"[.	g #C4C4C4",
"}.	g #BDBDBD",
"|.	g #B9B9B9",
"1.	g #BBBBBB",
"2.	g #B2B2B2",
"3.	g #A7A7A7",
"4.	g #B1B1B1",
"5.	g #B8B8B8",
"6.	g #C7C7C7",
"7.	g #BCBCBC",
"8.	g #B4B4B4",
"9.	g #C1C1C1",
"0.	g #5A5A5A",
"a.	g #BFBFBF",
"b.	g #CCCCCC",
"c.	g #C6C6C6",
"d.	g #C2C2C2",
"e.	g #D0D0D0",
"f.	g #D1D1D1",
"g.	g #C0C0C0",
"h.	g #C9C9C9",
"i.	g #CBCBCB",
"j.	g #C3C3C3",
"k.	g #BEBEBE",
"l.	g #C5C5C5",
"m.	g #CACACA",
"n.	g #C8C8C8",
"o.	g #CDCDCD",
"p.	g #D8D8D8",
"q.	g #D5D5D5",
"r.	g #DFDFDF",
"s.	g #D2D2D2",
"t.	g #CECECE",
"u.	g #D4D4D4",
"v.	g #CFCFCF",
"w.	g #DBDBDB",
"x.	g #D6D6D6",
"y.	g #D3D3D3",
"z.	g #D9D9D9",
"A.	g #DADADA",
"B.	g #DCDCDC",
"C.	g #E0E0E0",
"D.	g #E5E5E5",
"E.	g #E8E8E8",
"F.	g #DEDEDE",
"G.	g #D7D7D7",
"H.	g #E3E3E3",
"I.	g #E2E2E2",
"J.	g #E9E9E9",
"K.	g #DDDDDD",
"L.	g #E4E4E4",
"M.	g #E6E6E6",
"N.	g #E1E1E1",
"                                                                                                                                ",
"                                                                                                                                ",
"                                                          . + @ @ # $ %                                                         ",
"                                                % & * # = - ; > , ' > - ) ! ~ {                                                 ",
"                                          ] ^ @ + ^ ] ^ . & / * ( = _ : ! _ < _ < $ ^                                           ",
"                                      . & ] { [ } | 1 2 3 4 5 6 | ~ + @ @ @ 7 # < 8 9 0 a                                       ",
"                                  b } 3 b c d 5 $ e f $ : _ ! : ) = f $ $ g / ^ 5 6 ^ = h h *                                   ",
"                                i j k l & @ : g @ + e | + * | _ m n 0 _ o # 8 : @ . & ] ! m h : |                               ",
"                            p q r r c ~ s / } t 6 c u u ] ^ f $ a ' n , v w x m 9 - 8 ( v m > 9 a +                             ",
"                          y z A B b e e * C c D E j 3 4 6 5 ~ / * F G H G n I J K > a - w m L m > ( #                           ",
"                        M N p O i 6 & + 1 E P j Q R 2 { & % ] $ : - S H T T U V n L W 0 F W v ; ' a s 7                         ",
"                      X X Y O i 3 & ] R C Z ` C  .3 d 5 . & g < 9 W x ' V ..+.@.I F 8 ; m m 0 w m F 8 8 + |                     ",
"                    M M z #.$.E d 1 c C c c c b b t | & ^ 5 + : a v a m %.H ) = F S W v 9 w ! W &.' w w : <                     ",
"                  *.=.z -.;.l E Z R Q [ [ c d c d 1 6 { & 5 ^ s ) L W a >.x @ $ ( a 0 _ < x _ ) >.h S L x ; (                   ",
"                *.N ,.'.A E Q D 2 u [ 1 [ u d 1 4 } 6 ~ ~ ~ * = ; ).x v F # ^ e * + 7 < ! K , x h %.U n L ' ) ]                 ",
"              =.!.X N ~.{.2 u d c | & 1 1 6 } } 4 ~ & $ e ( 9 - ; , S 0 ! @ + f e f < @ * F @.U ].].^.T G >.> ! 5               ",
"              './.,.-.B t . | } [ [ t | [ & | ] 6 ^ g o ( > ).).W ! x &.- + $ / * $ 7 @ ^ f L ].(._._.:.+.J L ! <               ",
"            ,.y /.<.O j ! ] & 4 [ u t . { 5 / / . . ~ e / _ F L , x K n _ ~ ~ / g 7 7 + f ] _ ..[.}...].|.K S ; 8 +             ",
"            #.N /.z $.u ( & } t 1 % ^ : e / f * $ + + * + + @ > @._.@.L $ 5 & f e < @ . g ^ a I 1.1.|.@.K >.F x v _             ",
"          q /.A N p {. .3 | ~ { | } e * + @ + @ ( @ ( < ! e s ' V I G > # + f / g < * f g + 7 J U >.2.K J , S ; s : .           ",
"          z *././.;.{.j D [ / ~ % 5 7 ( a a @ : _ v ) ) _ ).>.3.J , ; - ) : ) $ * ( g + * . : K G > U 4.%.H m / { g #           ",
"        j y /.X z ~.r ` b 6 * @ 1 + ) ' F , L ).).).L x ; W L , > _ ! ! o m ) o ' v = e f + $ - W a - +.5.2.; ~ 1  .~ ]         ",
"        P N /.z z ;.k R 2 6 + s ~ @ w n n &.+.+.n G ' F a s # s o : s $ < 3.9 - &.' - / * ~ ^ f < @ $ &.2.6.J . d E b +         ",
"        l Y y -.p {.E  .u % _ - * ~ 0 G H J 7.8.G n K 0 - # ^ / o ( $ f f - a ).+.8 . 5 5 & ^ ^ & ~ ~ w H 2.@./ 2 l {.e 3       ",
"      b ` O Y p i {.l ` d 7 F F # # 8 ).>.8.9.:.n , &.x ! ! ! > ' >.a ( f = ' H 3.8 ] . 6 + + ~ { { | @ ).+.8.( d ` l . 4       ",
"      2 t $.'.P r E Q  .& a G >.a ! W ; n &.n m 0 v x a g # ).^.+.2.K L ).L U 2.I - ~ % ~ ^ ^ 6 6 { { 5 g m %., { ` [ * %       ",
"      . | 0.;.0.0.` Z c % # h 0 # a 0 h H ' m x o ( o < % < F T I +.....3.:.}.(.T w + 7 * ~ 6 & 5 } } / x W J I W ^ @ @ 5       ",
"      ^ . u ~.;.{.C c b t s < # ! = s - &.K S m = 8 w _ 7 8 ) &.+.].1.(.a.b.c.1.T , ! @ f / 5 . ^ ~ ~ g ( o = ' L 9 s + %       ",
"    3 ] + u $.;.$.Q D 2 3 g $ @ $ : a a x &.J >.9 _ v 8 9 ).w > ).>.|.d.c.e.f.g.2.+.W g + + / g + * + f ( w = s , 0 ! [ |       ",
"     .. f R i i 0.Q D c c { 6 / + + _ 9 - 0 ; J h 0 - ; K ^.H 0 h 4.d.[.h.i.h.j.k.%.).s # @ g * > a ^ + v _ f [ # 0 ) { 6 t     ",
"    R ~ + 3 $.$.{. . .c 3 & 4 ~ @ o o a : : ) &.n h n K +.8.5.2.^.].a.l.m.[.l.c.c.k.}.U w s 7 _ 5.@.w a = . ] d b ] 7 5 e 1     ",
"     .u g % ` i j 1 R 3 | } 4 ^ g # = ! < - m 3.J ).S g.a.g.a.k.7.1.9.6.n.d.6.c.6.n.o.c.}.m _ , 8.4.U n * . % t Q 2 5 [ 5 R     ",
"    R 4 u 5 t P 0.[ d t 1 5 ^ f @ v >.8 ( - ).3.3.x W ].(.(.j.l.a.a.j.l.o.h.m.l.m.p.q.n.T x m +.].V +.n $ f } [ 2 [ } { 6 D     ",
"    c %  .s % b j Q [ [ { & . ~ _ 0 n * g : - H ^.8 = ).2.}.(.|.1.j.[.o.r.f.b.m.h.p.s.k.+.&.h +.4.8.H ' W / & 1 | { . * %       ",
"    R ^ ^ < ( } c t 4 6 } g ^ ] * 8 v 7 g < < > H m - w T a.1.8.(.g.g.h.h.6.h.6.e.t.u.9.2.I ' T 2.k.}.' : f % | 6 % ~ . &       ",
"    D 5 * ! ) e | ! & * $ F 7 f f @ : $ 7 _ ! w G G W > U ].k.k.(.a.7.6.d.6.n.v.w.s.q.o.h.1.3.+.+._.|.2.m 7 6 } ~ s s / {       ",
"    P % $ < > ).s ! @ - 0 G F < e ] < w >.x > ).x > _ ' , J (.k.7.9.l.d.9.n.c.i.o.h.t.x.t.9.5.V 0 S ..}.F o / e 7 ).v g }       ",
"      t * $ o w w ( ) > , H ).m * ! s , U 9 a ; a W 8 v &.4.d.9.a.a.d.[.h.m.n.n.6.l.v.r.s.[.T h v 0 J ].&.w # $ @ 9 a @ 5       ",
"      d + f ) - ; 8 w L V J ).: s v ; 3.L v - x - = v 8 U }.j.n.d.i.o.6.6.o.h.j.9.m.i.f.w.h.J > 9 m 4.8.3.I , 7 7 ! < + 6       ",
"       .] $ w x x w &.2.n # ^ ] ! +.L I ' I x 9 ! ) W v ..d.6.j.}.l.h.a.k.j.[.j.n.c.c.t.y.l.3.x v o _.>.T n x * _ # * ^ }       ",
"        ~ 8 0 ' m m n J W . ^ . e >.h > L , x ; ; = ) m ].[.n.d.j.j.j.k.j.m.h.n.6.j.n.6.6.6.1.' v o +.G G 9 _ s < f ^ / 2       ",
"        { ! , +.+.J >.@.9 g e . ^ 8 h v m S 0 : a ! ) 9 J g.6.l.o.o.9.l.m.i.o.i.9.k.9.n.o.n...+.8.J >.n n 8 = m 8 g ~ e         ",
"        t e > ..U +.%.V S 7 # g * W , >.v S ).: : = 8 ; I [.m.m.z.m.c.u.y.s.o.c.}.a.c.q.v.k...|.5.3.U +.I F ).n _ * e ]         ",
"          5 = S >.n 2...3.; 8 < = h U &.m V J L , &.U ^.g.e.x.z.z.A.e.s.A.i.g.j.[.c.v.v.n.j.c.7.T 5.|.5.4.J &.)._ $ * j         ",
"          % * ! m &.H |.5...h F n 2.J w %.4.c.(.|.@.1.t.x.B.q.A.w.p.x.f.m.l.l.j.t.e.j.j.j.6.k.5..._.(.1.7.U >., o g {           ",
"          b ^ ( a ).G ^.a...I +.J ].&.F 3.I i.z.i.n.v.A.C.D.E.F.p.A.x.f.m.c.6.f.e.l.6.6.a.a.(.7.|.|.(.d.d.:.V h ) ]             ",
"            4 * = W 9 S J J n H %.:.T U ..7.l.i.A.x.G.H.I.J.E.w.p.K.u.t.s.v.x.o.h.l.n.9.7.|.1.d.(.(.1.b.d.:.K F 7 6             ",
"            C & s _ m G J T ' 0 ^...|.d.1.6.b.m.s.A.B.D.L.M.D.F.w.x.x.z.e.t.l.l.g.d.k.a.1.|.1.}.1._.d.m.j.:.G a ]               ",
"              2 f < ) L x h >.H %.7.9.}.7.d.6.v.u.w.F.F.C.H.H.r.F.w.u.f.i.l.m.6.9.k.a.k.k.1.k.(...|.9.}.k.>.0 s t               ",
"                { @ 8 > W 0 J V T 1.d.g.6.6.b.t.x.A.u.B.A.N.I.K.A.y.x.f.o.e.i.m.h.m.j.}.a.(.(.:.2.7.1.U ' W : u                 ",
"                  ~ < 8 W f ).' h ^.1.[.a.g.h.f.q.A.q.I.q.A.B.K.A.w.p.b.m.t.l.6.n.7.(.7.d.j.}.}.(.4.G n 0 8 5                   ",
"                  D ^ s o ; ; h x G U :.9.k.d.o.e.F.p.x.G.w.B.A.A.q.e.c.g.g.}.j.a.k.a.k.k.a.k.5.@.L 0 8 s 6                     ",
"                    R ~ s o w m 9 > n U (.1.7.c.m.y.w.F.B.K.N.r.w.G.f.b.l.d.k.}.}.d.l.j.d.6.}.@.S w 9 @ 4 P                     ",
"                      ` $ s ! ; m w h J @.8...d.e.t.G.r.p.u.p.s.w.u.b.h.n.j.d.}.7.1.7.7.7.4.n ).w - < 1 P                       ",
"                        E ^ * = 0 > 8 , V T 8.1.6.l.f.y.y.y.y.v.y.m.n.j.a.j.9.k.7.1.5.:.@.3.&., > g c P                         ",
"                            4 @ 8 > S S H @.U 5.a.9.b.e.m.f.i.n.n.6.j.d.9.a.1.:._._.@.U &.m m # 6 P                             ",
"                              t ! - F G V @.+.].(.7.d.t.s.6.9.k.9.9.l.9.7.5.8.].4.+.H G F 0 < b l                               ",
"                                C * - L , K U V T _.k.i.m.n.a.g.}.1.7...8.].U V +.J ' h > ! |                                   ",
"                                    1 * - S V H 3.U ^.}.j.g.(.|._.1.1.].4.%.+.I @.G m < ] 1                                     ",
"                                        [ ~ 9 &.&.I n I ].].4.]...5...^.@.I n &.x < %                                           ",
"                                              t / : 9 ).>.K ^.5._.^.T K L w = ~ 3                                               ",
"                                                      & / # _ v w a 8 # f [                                                     ",
"                                                                                                                                ",
"                                                                                                                                "};
