/* XPM */
static char * preferences_xpm[] = {
"32 32 276 2",
"  	c None",
". 	c #8E8F8B",
"+ 	c #B8BAB6",
"@ 	c #B7B9B6",
"# 	c #9D9E9A",
"$ 	c #868884",
"% 	c #D1D1CF",
"& 	c #FFFFFE",
"* 	c #EDEFEB",
"= 	c #CFD1CE",
"- 	c #90918B",
"; 	c #B6B7B3",
"> 	c #9B9D98",
", 	c #CED0CD",
"' 	c #EEF0EC",
") 	c #D8DAD8",
"! 	c #B7B8B4",
"~ 	c #F7F7F5",
"{ 	c #E1E2DF",
"] 	c #989A96",
"^ 	c #868783",
"/ 	c #8A8D87",
"( 	c #E8E9E7",
"_ 	c #E0E3DE",
": 	c #F2F4F0",
"< 	c #B1B3AF",
"[ 	c #9FA19C",
"} 	c #EDEDEB",
"| 	c #EEEEED",
"1 	c #F1F1EE",
"2 	c #C3C3C0",
"3 	c #858883",
"4 	c #B9BBB7",
"5 	c #9DA09B",
"6 	c #D7D8D6",
"7 	c #EBEDE9",
"8 	c #CDCECB",
"9 	c #BDBEBB",
"0 	c #F2F2F0",
"a 	c #DBDBD6",
"b 	c #BBBBB6",
"c 	c #8E908B",
"d 	c #DCDDDB",
"e 	c #EFEFEE",
"f 	c #989C97",
"g 	c #90918E",
"h 	c #EDEFEC",
"i 	c #D6D7D4",
"j 	c #ADAEAB",
"k 	c #E6E6E3",
"l 	c #B8B8B3",
"m 	c #9D9E98",
"n 	c #8F918D",
"o 	c #C7C8C5",
"p 	c #FFFFFF",
"q 	c #BDBEBC",
"r 	c #B8B9B6",
"s 	c #E1E2E0",
"t 	c #F5F6F4",
"u 	c #E9EBE7",
"v 	c #C5C7C3",
"w 	c #AEAFAB",
"x 	c #EAEAE6",
"y 	c #ACADA7",
"z 	c #A0A29E",
"A 	c #A6A8A5",
"B 	c #E9EAE7",
"C 	c #F1F3F0",
"D 	c #F3F4F1",
"E 	c #EAECE7",
"F 	c #DADED7",
"G 	c #DDDFD9",
"H 	c #E0E3DD",
"I 	c #E4E5E2",
"J 	c #9D9F9B",
"K 	c #AEB0AB",
"L 	c #E9E9E6",
"M 	c #A9AAA4",
"N 	c #A9ABA6",
"O 	c #B7B9B5",
"P 	c #EEEFEB",
"Q 	c #E5E7E2",
"R 	c #DFE1DC",
"S 	c #E0E2DD",
"T 	c #DCDED8",
"U 	c #DADDD7",
"V 	c #E4E6E1",
"W 	c #E6E7E5",
"X 	c #AEB0AC",
"Y 	c #E9E8E5",
"Z 	c #A8A9A4",
"` 	c #A6A9A5",
" .	c #A7A9A5",
"..	c #D6D7D3",
"+.	c #E2E3E0",
"@.	c #E1E3DF",
"#.	c #DBDED9",
"$.	c #C2C5C0",
"%.	c #C4C7C4",
"&.	c #DEDFDD",
"*.	c #9D9F9A",
"=.	c #ACADA9",
"-.	c #A7A8A5",
";.	c #8A8C8A",
">.	c #898B86",
",.	c #CFD0CC",
"'.	c #E3E6E2",
").	c #B2B6B2",
"!.	c #B0B4AF",
"~.	c #C0C3C0",
"{.	c #DDDEDB",
"].	c #9B9D99",
"^.	c #BBBBB8",
"/.	c #A7A8A2",
"(.	c #AAABA8",
"_.	c #898780",
":.	c #CCCDC9",
"<.	c #D1D4D1",
"[.	c #B3B7B3",
"}.	c #C1C4C0",
"|.	c #DDDFDC",
"1.	c #959792",
"2.	c #949592",
"3.	c #7C7F7D",
"4.	c #CDCCC7",
"5.	c #B4B8B4",
"6.	c #B3B6B3",
"7.	c #C2C5C1",
"8.	c #DADCD9",
"9.	c #9C9E9A",
"0.	c #3B5B87",
"a.	c #6D757B",
"b.	c #C8C8C4",
"c.	c #D3D6D4",
"d.	c #B7BAB7",
"e.	c #B4B7B4",
"f.	c #C3C6C3",
"g.	c #DBDCD9",
"h.	c #4F72A5",
"i.	c #91B0D6",
"j.	c #849DBA",
"k.	c #A3A7A8",
"l.	c #A4A49F",
"m.	c #C6C7C3",
"n.	c #D5D8D7",
"o.	c #B9BEBD",
"p.	c #B7BBB9",
"q.	c #C5C8C6",
"r.	c #8F908D",
"s.	c #5577A7",
"t.	c #A2C0DF",
"u.	c #7CA9DA",
"v.	c #7F97AF",
"w.	c #CDC9BD",
"x.	c #A9ABA5",
"y.	c #6E7476",
"z.	c #C6C6C3",
"A.	c #D8DBDC",
"B.	c #BCC2C4",
"C.	c #B9BFBF",
"D.	c #C8CBCB",
"E.	c #DBDDDA",
"F.	c #8C8E89",
"G.	c #5477A8",
"H.	c #A6C3E1",
"I.	c #82ABD7",
"J.	c #6492C4",
"K.	c #638EC1",
"L.	c #748BA3",
"M.	c #7B91AB",
"N.	c #355586",
"O.	c #767774",
"P.	c #C5C6C4",
"Q.	c #D9DEDF",
"R.	c #BFC6C8",
"S.	c #BDC3C4",
"T.	c #CACFCF",
"U.	c #DBDDDB",
"V.	c #5478A8",
"W.	c #A7C3E1",
"X.	c #85AED8",
"Y.	c #5E88B8",
"Z.	c #5278A7",
"`.	c #5788C2",
" +	c #5385C5",
".+	c #7699CA",
"++	c #195197",
"@+	c #7B7867",
"#+	c #C4C4C3",
"$+	c #DCE1E3",
"%+	c #C3CACE",
"&+	c #C0C7CA",
"*+	c #CDD3D4",
"=+	c #858783",
"-+	c #5376A8",
";+	c #A5C2E0",
">+	c #87AFD9",
",+	c #5E88B7",
"'+	c #5076A4",
")+	c #5B87BF",
"!+	c #4671A7",
"~+	c #6E90BE",
"{+	c #4A6EA4",
"]+	c #697363",
"^+	c #DEE4E7",
"/+	c #C5CED5",
"(+	c #C2CACF",
"_+	c #D1D7DA",
":+	c #E0E1DF",
"<+	c #82847F",
"[+	c #4E74A4",
"}+	c #A4C1E0",
"|+	c #88AFD9",
"1+	c #5B88BF",
"2+	c #456EA4",
"3+	c #6080AA",
"4+	c #486EA4",
"5+	c #636262",
"6+	c #C3C4C2",
"7+	c #E0E7EB",
"8+	c #C8D2DA",
"9+	c #CDD4D8",
"0+	c #EFEFED",
"a+	c #E3E4E1",
"b+	c #7F817D",
"c+	c #2C4A91",
"d+	c #8FB1D4",
"e+	c #87AED9",
"f+	c #456EA3",
"g+	c #5E7EA9",
"h+	c #4870AA",
"i+	c #656764",
"j+	c #C2C3C1",
"k+	c #ECEFF1",
"l+	c #E8E9E8",
"m+	c #E8E8E5",
"n+	c #E6E8E4",
"o+	c #797B77",
"p+	c #29538E",
"q+	c #8CB0D6",
"r+	c #6A97C9",
"s+	c #5078A7",
"t+	c #5A87BE",
"u+	c #5B7DA9",
"v+	c #4770AB",
"w+	c #61625F",
"x+	c #C5C6C2",
"y+	c #FBFAF9",
"z+	c #D1D3CE",
"A+	c #9A9D96",
"B+	c #DFE0DD",
"C+	c #C2C3C0",
"D+	c #618ABF",
"E+	c #7EA6D4",
"F+	c #5B8BC5",
"G+	c #4974AB",
"H+	c #597BA9",
"I+	c #426CA6",
"J+	c #4D4F4C",
"K+	c #E6E7E4",
"L+	c #B5B7B3",
"M+	c #F2F2F1",
"N+	c #C3C4C1",
"O+	c #15325A",
"P+	c #5680B8",
"Q+	c #6B95CC",
"R+	c #5F88C0",
"S+	c #3D66A1",
"T+	c #444644",
"U+	c #BCBDBA",
"V+	c #6B6C6A",
"W+	c #1D3B68",
"X+	c #1A355D",
"Y+	c #272826",
"Z+	c #4D4E4C",
"`+	c #3A3B39",
"                                                                ",
"                                                                ",
"                                                                ",
"                                                                ",
"            . + @ #                                             ",
"            $ % & * = -                         ; >             ",
"                , ' ' )                       ! ~ { ]           ",
"      ^         / ( _ : <                   [ } | 1 2 3         ",
"      4 5         6 7 7 8                   9 0 a b c           ",
"      d e f     g ( h h i                 j k l m n             ",
"      o p ( q r s t u t v               w x y z                 ",
"      A B u C D E F G H I J           K L M N                   ",
"        O P Q R R S T U V W J       X Y Z `                     ",
"           ...I +.@.u #.$.%.&.*.  =.L Z -.                      ",
"              ;.>.>.,.'.).!.~.{.].^./.(.                        ",
"                    _.:.<.[.).}.|.1.2.                          ",
"                      3.4.<.5.6.7.8.9.                          ",
"                      0.a.b.c.d.e.f.g.n                         ",
"                  h.i.j.k.l.m.n.o.p.q.d r.                      ",
"                s.t.u.v.w.x.y.z.A.B.C.D.E.F.                    ",
"              G.H.I.J.K.L.M.N.O.P.Q.R.S.T.U.>.                  ",
"            V.W.X.Y.Z.`. +.+++  @+#+$+%+&+*+U.=+                ",
"          -+;+>+,+'+)+!+~+{+      ]+#+^+/+(+_+:+<+              ",
"        [+}+|+,+'+1+2+3+4+          5+6+7+8+9+0+a+b+            ",
"      c+d+e+,+'+1+f+g+h+              i+j+k+l+m+n+d o+          ",
"      p+q+r+s+t+f+u+v+                  w+x+y+z+A+B+C+          ",
"        D+E+F+G+H+I+                      J+P.K+L+M+N+          ",
"        O+P+Q+R+S+                          T+U+~ g.V+          ",
"            W+X+                              Y+Z+`+            ",
"                                                                ",
"                                                                ",
"                                                                "};
