/* XPM */
static char * quit_xpm[] = {
"32 32 344 2",
"  	c None",
". 	c #767B71",
"+ 	c #878C82",
"@ 	c #A0A49C",
"# 	c #AEB1AB",
"$ 	c #B1B4AE",
"% 	c #AFB1AB",
"& 	c #A3A69E",
"* 	c #8C9087",
"= 	c #787B73",
"- 	c #7D8277",
"; 	c #ADB0AA",
"> 	c #DCDDDA",
", 	c #ECECEB",
"' 	c #ECECEC",
") 	c #ECEBEB",
"! 	c #EBEAEB",
"~ 	c #EBEAEA",
"{ 	c #EBEBEB",
"] 	c #E9E8E8",
"^ 	c #DEDEDC",
"/ 	c #B9BAB5",
"( 	c #898D83",
"_ 	c #72796D",
": 	c #A4A79F",
"< 	c #E2E3E0",
"[ 	c #EFEFEE",
"} 	c #DFDEDE",
"| 	c #D3D4D3",
"1 	c #D0D0D0",
"2 	c #CFCFCD",
"3 	c #CFCFCE",
"4 	c #D0D0CF",
"5 	c #D3D3D2",
"6 	c #DADADA",
"7 	c #E9E8E9",
"8 	c #E9E9E8",
"9 	c #BCBEB8",
"0 	c #7F8379",
"a 	c #C9C9C5",
"b 	c #F0EFEF",
"c 	c #DDDCDC",
"d 	c #D1D1CF",
"e 	c #D1D1D0",
"f 	c #D4D4D4",
"g 	c #E0E0DE",
"h 	c #949890",
"i 	c #84897F",
"j 	c #D6D7D4",
"k 	c #D2D2D1",
"l 	c #D3D3D1",
"m 	c #D2D2D0",
"n 	c #CDCDCD",
"o 	c #DFDEDF",
"p 	c #A0A39B",
"q 	c #81847A",
"r 	c #D3D3D0",
"s 	c #E4E4E4",
"t 	c #D1D1CE",
"u 	c #D2D2CF",
"v 	c #CCCCC9",
"w 	c #CCCCCC",
"x 	c #D7D7D8",
"y 	c #9B9E96",
"z 	c #767970",
"A 	c #C3C4BF",
"B 	c #E1E0E1",
"C 	c #D5D5D2",
"D 	c #D8D7D4",
"E 	c #B2B2AF",
"F 	c #5C5E5A",
"G 	c #A2A3A0",
"H 	c #D8D8D5",
"I 	c #CFCFCF",
"J 	c #CBCBCB",
"K 	c #D6D5D6",
"L 	c #DBDBD9",
"M 	c #898D84",
"N 	c #DEDEDD",
"O 	c #D0D0D1",
"P 	c #D4D4D1",
"Q 	c #BDBDBA",
"R 	c #D1D1CD",
"S 	c #9C9D99",
"T 	c #444642",
"U 	c #888986",
"V 	c #BFBFBC",
"W 	c #CACACA",
"X 	c #D8D8D8",
"Y 	c #C6C8C3",
"Z 	c #7C8377",
"` 	c #D2D2D2",
" .	c #8F908C",
"..	c #4F514E",
"+.	c #8A8B87",
"@.	c #A1A29D",
"#.	c #494B47",
"$.	c #92938F",
"%.	c #4F514D",
"&.	c #8A8B88",
"*.	c #CECECF",
"=.	c #C8C8C9",
"-.	c #DCDCDB",
";.	c #989C93",
">.	c #A1A39C",
",.	c #DFDEDD",
"'.	c #CECECE",
").	c #D5D5D3",
"!.	c #8D8E8A",
"~.	c #4A4C48",
"{.	c #535551",
"].	c #A8A9A4",
"^.	c #484A46",
"/.	c #8F8F8C",
"(.	c #A7A8A4",
"_.	c #525450",
":.	c #D4D4D2",
"<.	c #C8C8C8",
"[.	c #D6D6D6",
"}.	c #C7C8C3",
"|.	c #C2C4BF",
"1.	c #DFDFDF",
"2.	c #D6D6D4",
"3.	c #B6B6B4",
"4.	c #575955",
"5.	c #B0B0AC",
"6.	c #DFDEDA",
"7.	c #9D9E99",
"8.	c #898A87",
"9.	c #DBDBD7",
"0.	c #B3B3B0",
"a.	c #5A5C58",
"b.	c #4E514C",
"c.	c #ADAEAB",
"d.	c #D7D7D6",
"e.	c #D1D1D1",
"f.	c #E3E3E1",
"g.	c #757A72",
"h.	c #7B7E74",
"i.	c #DCDCDC",
"j.	c #D7D7D5",
"k.	c #8D8E8B",
"l.	c #474945",
"m.	c #90928D",
"n.	c #DADAD6",
"o.	c #DAD9D4",
"p.	c #9B9C97",
"q.	c #424541",
"r.	c #878884",
"s.	c #D8D8D4",
"t.	c #DBDAD7",
"u.	c #999A96",
"v.	c #81827E",
"w.	c #D5D5D4",
"x.	c #999C93",
"y.	c #868A81",
"z.	c #E8E8E6",
"A.	c #DBDBDB",
"B.	c #757673",
"C.	c #B1B1AE",
"D.	c #D7D7D3",
"E.	c #D5D5D1",
"F.	c #B8B8B4",
"G.	c #6C6E6A",
"H.	c #AAABA7",
"I.	c #D6D6D3",
"J.	c #C0C0BD",
"K.	c #565854",
"L.	c #666764",
"M.	c #CDCDCC",
"N.	c #F3F3F3",
"O.	c #B3B6AF",
"P.	c #8E9089",
"Q.	c #EFEFED",
"R.	c #DADADB",
"S.	c #727470",
"T.	c #51534F",
"U.	c #B3B4B0",
"V.	c #D3D3CF",
"W.	c #D1D0CC",
"X.	c #C5C5C2",
"Y.	c #585A56",
"Z.	c #60625E",
"`.	c #CBCBCA",
" +	c #F5F5F5",
".+	c #BDC0BA",
"++	c #91948C",
"@+	c #F0F0EE",
"#+	c #C9C9C9",
"$+	c #D6D6D5",
"%+	c #848683",
"&+	c #484B46",
"*+	c #9FA09C",
"=+	c #D9D9D6",
"-+	c #B3B3B1",
";+	c #4F524D",
">+	c #71726F",
",+	c #C7C7C7",
"'+	c #F6F5F5",
")+	c #C1C3BD",
"!+	c #8D9088",
"~+	c #DEDEDE",
"{+	c #D8D7D7",
"]+	c #A9A9A7",
"^+	c #4C4E49",
"/+	c #6B6D69",
"(+	c #CDCECB",
"_+	c #D6D5D3",
":+	c #7D7E7B",
"<+	c #949693",
"[+	c #D7D7D7",
"}+	c #C5C5C5",
"|+	c #F9F9F8",
"1+	c #BDC0B9",
"2+	c #7F837A",
"3+	c #EBEBE9",
"4+	c #CECECD",
"5+	c #6D6F6B",
"6+	c #81837F",
"7+	c #CDCDCB",
"8+	c #D9D9D7",
"9+	c #90918E",
"0+	c #4C4E4A",
"a+	c #5E605C",
"b+	c #C3C3C2",
"c+	c #C3C3C3",
"d+	c #D3D3D3",
"e+	c #F7F7F6",
"f+	c #B1B4AC",
"g+	c #686C64",
"h+	c #DEDFDB",
"i+	c #B9B9B7",
"j+	c #676965",
"k+	c #9E9F9C",
"l+	c #939491",
"m+	c #4B4D49",
"n+	c #555753",
"o+	c #A9AAA9",
"p+	c #D5D4D5",
"q+	c #C6C6C6",
"r+	c #C1C1C1",
"s+	c #F3F2F1",
"t+	c #959790",
"u+	c #C8CAC4",
"v+	c #F2F1F1",
"w+	c #BDBDBC",
"x+	c #747572",
"y+	c #4E504C",
"z+	c #454843",
"A+	c #474A45",
"B+	c #4D4F4B",
"C+	c #6B6C69",
"D+	c #B2B3B1",
"E+	c #EAEAEA",
"F+	c #E7E8E4",
"G+	c #70736B",
"H+	c #9EA299",
"I+	c #E3E3E3",
"J+	c #ADAEAC",
"K+	c #919290",
"L+	c #8F908E",
"M+	c #A8A9A8",
"N+	c #C0C0C0",
"O+	c #F2F2F1",
"P+	c #CACCC6",
"Q+	c #62665E",
"R+	c #D7D8D3",
"S+	c #ECEBEA",
"T+	c #D3D3D4",
"U+	c #D4D3D4",
"V+	c #D5D5D5",
"W+	c #C2C2C2",
"X+	c #E8E8E7",
"Y+	c #EBEBE8",
"Z+	c #94978F",
"`+	c #A6A9A0",
" @	c #E4E4E1",
".@	c #E8E8E8",
"+@	c #CBCBCC",
"@@	c #E1E1E1",
"#@	c #ECECEA",
"$@	c #CACCC7",
"%@	c #4F524B",
"&@	c #C4C6BF",
"*@	c #E3E3E0",
"=@	c #E7E7E7",
"-@	c #C9C9CA",
";@	c #C4C4C4",
">@	c #EAEAE7",
",@	c #DCDDD8",
"'@	c #7D8278",
")@	c #767A70",
"!@	c #CBCDC7",
"~@	c #DFDEDB",
"{@	c #BEBEBE",
"]@	c #E6E6E3",
"^@	c #DDDDD9",
"/@	c #9B9E94",
"(@	c #C7C8C1",
"_@	c #D7D7D2",
":@	c #E4E4E3",
"<@	c #DDDDDD",
"[@	c #BFBFBF",
"}@	c #C1C1C2",
"|@	c #E6E6E5",
"1@	c #DFDFDC",
"2@	c #A0A39A",
"3@	c #B9BBB2",
"4@	c #CCCCC5",
"5@	c #E0E0DD",
"6@	c #C4C4C5",
"7@	c #D3D3CE",
"8@	c #C8C9C3",
"9@	c #555850",
"0@	c #9DA096",
"a@	c #C9CAC3",
"b@	c #FBFAFA",
"c@	c #F0F0F0",
"d@	c #E2E2DF",
"e@	c #D8D8D3",
"f@	c #C9C9C3",
"g@	c #AEB0A8",
"h@	c #72766C",
"i@	c #686C63",
"j@	c #A7AAA1",
"k@	c #DCDED9",
"l@	c #F3F4F2",
"m@	c #F3F4F1",
"n@	c #F2F1F0",
"o@	c #EFEEEC",
"p@	c #E9E9E5",
"q@	c #E1E1DD",
"r@	c #C9CAC4",
"s@	c #ACAEA5",
"t@	c #7B7F75",
"u@	c #454840",
"v@	c #73766E",
"w@	c #90938B",
"x@	c #A0A29B",
"y@	c #A6A8A1",
"z@	c #A0A29A",
"A@	c #8F938A",
"B@	c #7A7E75",
"C@	c #51544D",
"                                                                ",
"                      . + @ # $ % & * =                         ",
"                  - ; > , ' ) ! ~ { ] ^ / (                     ",
"              _ : < [ } | 1 2 3 3 4 5 6 7 8 9 0                 ",
"            0 a b c 3 3 d d d d e d e 4 3 f { g h               ",
"          i j { k 3 d d d d d l m d e e e 4 n o 8 p             ",
"        q r s 4 4 e d d d t u v u d d d e e 1 w x s y           ",
"      z A B 1 e e d d u C D E F G H C m d e e I J K L M         ",
"      : N O 1 e d d r P Q R S T U t V P l d e 1 n W X Y         ",
"    Z R ` I e e d l u  ...+.@.#. .$.%.&.d 5 e e *.J =.-.;.      ",
"    >.,.'.4 e e d ).!.~.{.].@.^./.(._.~.U :.k e I w <.[.}.      ",
"    |.1.n 4 e d 2.3._.4.5.6.7.^.8.9.0.a.b.c.d.e I w <.e.f.g.    ",
"  h.> i.w 1 e e j.k.l.m.n.o.p.q.r.s.t.u.#.v.w.k I w <.'., x.    ",
"  y.z.A.J 1 e k d B.%.C.D.E.F.G.H.I.C J.K.L.M.` *.w <.J N.O.    ",
"  P.Q.R.W I e k 4 S.T.U.I.R V.W.V.t P X.Y.Z.`.` '.J <.W  +.+    ",
"  ++@+A.#+'.1 k $+%+&+*+=+t t u t t j.-+;+>+e 1 w W ,+#+'+)+    ",
"  !+Q.~+<.M.I e {+]+^+/+(+_+t t d :.2.:+^.<+[+'.w #+}+w |+1+    ",
"  2+3+s ,+J '.4 5 4+5+&+6+7+8+8+8+d 9+0+a+b+` w W <.c+d+e+f+    ",
"  g+h+{ #+#+w '.4 $+i+a+#.j+9+k+l+5+m+n+o+p+w J #+q+r+~+s+t+    ",
"    u+v+d+q+J w '.I $+w+x+y+z+A+z+B+C+D+f n w W <.}+}+E+F+G+    ",
"    H+3+I+}+<.W w n '.d+I J+K+U L+M+J d+w W #+<.}+N+f O+P+      ",
"    Q+R+S+T+c+,+#+J J w I d+[.U+V+d+'.W W #+,+q+W+}+X+Y+Z+      ",
"      `+ @.@+@c+,+<.#+W J J J J J W W <.,+q+}+W+N+@@#@$@        ",
"      %@&@*@=@-@r+q+,+,+<.<.<.<.<.<.,+q+}+;@r+N+~+>@,@'@        ",
"        )@!@~@=@I N+c+}+}+q+q+q+q+}+}+c+W+{@}+@@]@^@/@          ",
"          0 (@_@:@<@,+[@N+W+W+W+W+W+N+{@}@f |@1@E.2@            ",
"            . 3@4@5@E+~+I }+c+W+c+6@w X s 5@7@8@++              ",
"              9@0@a@>@b@e+c@.@|@|@.@z.d@e@f@g@h@                ",
"                  i@j@k@l@m@n@o@p@q@D.r@s@t@                    ",
"                      u@v@w@x@y@z@A@B@C@                        ",
"                                                                ",
"                                                                "};
