/* XPM */
static char * restore_xpm[] = {
"32 32 211 2",
"  	c None",
". 	c #29528D",
"+ 	c #254C89",
"@ 	c #5276A8",
"# 	c #678BB8",
"$ 	c #6589B6",
"% 	c #668AB7",
"& 	c #6083B2",
"* 	c #2E568F",
"= 	c #3A5C8C",
"- 	c #7FA3CD",
"; 	c #6693C5",
"> 	c #6491C4",
", 	c #628FC3",
"' 	c #7DA3CF",
") 	c #4F73A5",
"! 	c #3C5E8D",
"~ 	c #81A6D1",
"{ 	c #6695CA",
"] 	c #6594C9",
"^ 	c #6393C8",
"/ 	c #7DA6D3",
"( 	c #4D74A8",
"_ 	c #576F8F",
": 	c #ABC3DE",
"< 	c #9DBBDA",
"[ 	c #9BB9D9",
"} 	c #9AB9D9",
"| 	c #ACC6E1",
"1 	c #738DAD",
"2 	c #90938D",
"3 	c #F0EFED",
"4 	c #F2F1EF",
"5 	c #F0F0ED",
"6 	c #F9F8F5",
"7 	c #B6B7B3",
"8 	c #91928D",
"9 	c #F1F0EF",
"0 	c #F1F1EE",
"a 	c #EFEFEC",
"b 	c #F9F9F6",
"c 	c #B4B8B8",
"d 	c #44689A",
"e 	c #496FA3",
"f 	c #4A6FA3",
"g 	c #4C71A4",
"h 	c #395F96",
"i 	c #90928D",
"j 	c #F0F0EF",
"k 	c #F0F0EE",
"l 	c #EEEEEC",
"m 	c #F9F8F6",
"n 	c #B7BBBA",
"o 	c #6A90BC",
"p 	c #6F98C8",
"q 	c #7098C7",
"r 	c #729AC8",
"s 	c #799CC6",
"t 	c #33568D",
"u 	c #F0EFEE",
"v 	c #EEEDEC",
"w 	c #F9F7F5",
"x 	c #B6BABA",
"y 	c #5D8ABB",
"z 	c #6191C6",
"A 	c #6291C5",
"B 	c #6392C6",
"C 	c #80A6D0",
"D 	c #3F608D",
"E 	c #EFEFEE",
"F 	c #ECECEA",
"G 	c #ECECE9",
"H 	c #F6F6F3",
"I 	c #B7BBBB",
"J 	c #739BC5",
"K 	c #79A4D2",
"L 	c #79A3D1",
"M 	c #7AA4D2",
"N 	c #8FB1D6",
"O 	c #43638D",
"P 	c #EEEFED",
"Q 	c #ECEDEA",
"R 	c #EAEBE8",
"S 	c #E9EBE7",
"T 	c #F3F4F2",
"U 	c #BDBFBC",
"V 	c #D7DBDD",
"W 	c #E5E9EB",
"X 	c #E3E7E9",
"Y 	c #E5E8EA",
"Z 	c #888E8D",
"` 	c #EDEDEC",
" .	c #EAEAE7",
"..	c #E8E8E6",
"+.	c #E7E8E4",
"@.	c #F1F2F0",
"#.	c #BEBFBC",
"$.	c #E3E3E0",
"%.	c #F3F2EF",
"&.	c #F1F0ED",
"*.	c #92938D",
"=.	c #ECEDEB",
"-.	c #E7E9E5",
";.	c #E6E7E4",
">.	c #E4E6E3",
",.	c #F0F1EE",
"'.	c #E1E1DF",
").	c #EBECEA",
"!.	c #E5E7E3",
"~.	c #E4E6E2",
"{.	c #E3E5E1",
"].	c #EEF0ED",
"^.	c #BDBFBB",
"/.	c #EAEBE9",
"(.	c #E2E4E0",
"_.	c #E2E3DF",
":.	c #E1E2DE",
"<.	c #EDEEEB",
"[.	c #BDBEBB",
"}.	c #E0E0DE",
"|.	c #EFEFED",
"1.	c #EDEDEB",
"2.	c #E9EAE8",
"3.	c #E1E3DD",
"4.	c #E0E2DC",
"5.	c #DFE1DB",
"6.	c #ECEDE9",
"7.	c #DEDFDB",
"8.	c #EBEBE9",
"9.	c #E8EAE7",
"0.	c #DFE1DC",
"a.	c #DEE0DB",
"b.	c #DDDFDA",
"c.	c #EAECE8",
"d.	c #BCBEBA",
"e.	c #DDDDDA",
"f.	c #EBEBE8",
"g.	c #E9E9E6",
"h.	c #90938E",
"i.	c #E8E9E5",
"j.	c #DDE0DA",
"k.	c #DCDFD9",
"l.	c #DBDED8",
"m.	c #E9EBE6",
"n.	c #BCBDBA",
"o.	c #DBDCD8",
"p.	c #E9EAE6",
"q.	c #E8E9E6",
"r.	c #E7E8E5",
"s.	c #DADDD7",
"t.	c #D9DCD6",
"u.	c #E7EAE5",
"v.	c #BBBDB9",
"w.	c #D9DAD5",
"x.	c #E7E8E3",
"y.	c #E5E6E1",
"z.	c #E6E7E3",
"A.	c #E6E8E4",
"B.	c #D7DBD4",
"C.	c #D6DAD3",
"D.	c #D5D9D2",
"E.	c #E5E8E3",
"F.	c #D6D8D3",
"G.	c #E5E7E2",
"H.	c #E3E4E0",
"I.	c #E4E5E0",
"J.	c #EBECE9",
"K.	c #8E908B",
"L.	c #E8EBE6",
"M.	c #E6E9E4",
"N.	c #E4E7E2",
"O.	c #EBEDE8",
"P.	c #B5B7B3",
"Q.	c #D7D9D4",
"R.	c #E2E4DF",
"S.	c #E1E3DE",
"T.	c #E1E4DF",
"U.	c #A2A4A0",
"V.	c #B8BAB5",
"W.	c #B6B8B3",
"X.	c #B8BAB6",
"Y.	c #B5B6B2",
"Z.	c #BDBEBA",
"`.	c #E0E2DD",
" +	c #DFE0DC",
".+	c #E0E1DD",
"++	c #E9EAE7",
"@+	c #ADAFAB",
"#+	c #DEE1DC",
"$+	c #D0D3CD",
"%+	c #D1D4CE",
"&+	c #D1D3CE",
"*+	c #D3D6D0",
"=+	c #B7B9B5",
"-+	c #EBEDE9",
";+	c #DADED7",
">+	c #D7DAD4",
",+	c #D8DBD5",
"'+	c #EEF0EB",
")+	c #DDE0D9",
"!+	c #DEE1DA",
"~+	c #DFE3DC",
"{+	c #959692",
"]+	c #CCCDCA",
"^+	c #D5D6D3",
"/+	c #D4D5D2",
"(+	c #D6D8D4",
"_+	c #BCBEBB",
":+	c #8E8F8A",
"<+	c #949591",
"[+	c #949691",
"                                                                ",
"                                                                ",
"      . . . . . . . . . . . . . . . . . . . +                   ",
"    @ # $ $ $ $ $ $ $ $ $ $ $ $ $ $ $ $ $ % & *                 ",
"  = - ; > > > > > > > > > > > > > > > > > , ' )                 ",
"  ! ~ { ] ] ] ] ] ] ] ] ] ] ] ] ] ] ] ] ] ^ / (                 ",
"  _ : < [ [ [ [ [ [ [ [ [ [ [ [ [ [ [ [ [ } | 1                 ",
"  2 3 4 5 5 5 5 5 5 5 5 5 5 5 5 5 5 5 5 5 5 6 7                 ",
"  8 9 0 a a a a a a a a a a a a a a a a a a b c d e f f g h     ",
"  i j k l l l l l l l l l l l l l l l l l l m n o p q q r s t   ",
"  i j u v v v v v v v v v v v v v v v v v v w x y z A A B C D   ",
"  i E l F F F F F F F F F F F F F F F F F G H I J K L L M N O   ",
"  i P Q R R R R R R R R R R R R R R R R R S T U V W X X W Y Z   ",
"  i `  ...................................+.@.#.$.%.&.&.%.4 *.  ",
"  i =.-.;.;.;.;.;.;.;.;.;.;.;.;.;.;.;.;.;.>.,.#.'.k l l k j i   ",
"  i ).!.~.~.~.~.~.~.~.~.~.~.~.~.~.~.~.~.~.{.].^.'.k l l k j i   ",
"  i /.(._._._._._._._._._._._._._._._._._.:.<.[.}.|.1.1.|.E i   ",
"  i 2.3.4.4.4.4.4.4.4.4.4.4.4.4.4.4.4.4.4.5.6.[.7.1.8.8.1.|.i   ",
"  2 9.0.a.a.a.a.a.a.a.a.a.a.a.a.a.a.a.a.a.b.c.d.e.f.g.g.f.l i   ",
"  h.i.j.k.k.k.k.k.k.k.k.k.k.k.k.k.k.k.k.k.l.m.n.o.p.+.+.q.=.i   ",
"  h.r.l.s.s.s.s.s.s.s.s.s.s.s.s.s.s.s.s.s.t.u.v.w.x.y.y.z.G i   ",
"  h.A.B.C.C.C.C.C.C.C.C.C.C.C.C.C.C.C.C.C.D.E.d.F.G.H.H.I.J.i   ",
"  K.;.L.M.M.M.M.E.N.N.N.N.N.N.N.N.N.N.N.N.N.O.P.Q.R.S.S.T.R i   ",
"    U.V.W.W.W.P.X.d.v.v.v.v.v.v.v.v.v.v.v.v.Y.Z.`.a. + +.+++2   ",
"                @+#+$+%+%+%+%+%+%+%+%+%+%+&+*+a.b.k.b.b.a.q.h.  ",
"                =+-+l.k.k.k.k.k.k.k.k.k.k.k.k.l.;+l.l.l.k.r.h.  ",
"                7 u.>+,+,+,+,+,+,+,+,+,+,+,+,+,+,+,+,+,+t.A.h.  ",
"                7 '+)+!+!+!+!+!+!+!+!+!+!+!+!+!+!+!+!+!+~+c.2   ",
"                {+]+^+/+/+/+/+/+/+/+/+/+/+/+/+/+/+/+/+/+(+_+    ",
"                  :+{+<+<+<+<+<+<+<+<+<+<+<+<+<+<+<+<+<+[+      ",
"                                                                ",
"                                                                "};
