/* XPM */
static char * get_info_xpm[] = {
"32 32 278 2",
"  	c None",
". 	c #7B7C7C",
"+ 	c #7B7B7C",
"@ 	c #7C7C7C",
"# 	c #7F7F7F",
"$ 	c #D9D9DA",
"% 	c #F3F3F3",
"& 	c #FEFEFE",
"* 	c #FAFAFA",
"= 	c #D9D9D9",
"- 	c #7C7C7D",
"; 	c #7F7F80",
"> 	c #E7E7E7",
", 	c #FBFBFB",
"' 	c #D9E0EE",
") 	c #9AB0DE",
"! 	c #6286D2",
"~ 	c #436FCC",
"{ 	c #99B0DE",
"] 	c #D8E0EE",
"^ 	c #C9C9C9",
"/ 	c #D2DBED",
"( 	c #587ED0",
"_ 	c #426ECB",
": 	c #416DCA",
"< 	c #416DC9",
"[ 	c #406CC8",
"} 	c #547BCB",
"| 	c #D1DAEC",
"1 	c #C7C8C8",
"2 	c #DADADA",
"3 	c #F2F4F6",
"4 	c #819DD9",
"5 	c #6C8DD3",
"6 	c #6C8DD2",
"7 	c #406BC7",
"8 	c #3F6BC6",
"9 	c #3E6AC5",
"0 	c #3E69C4",
"a 	c #3D68C3",
"b 	c #7E98D2",
"c 	c #F1F2F5",
"d 	c #D8D8D9",
"e 	c #ABBCDF",
"f 	c #EBECED",
"g 	c #CAD3E5",
"h 	c #3E69C5",
"i 	c #3D68C2",
"j 	c #3C67C1",
"k 	c #3B66C0",
"l 	c #3B65BF",
"m 	c #5A7DC6",
"n 	c #F0F1F4",
"o 	c #D8D8D8",
"p 	c #BFBFC0",
"q 	c #436FCB",
"r 	c #426ECA",
"s 	c #6888CC",
"t 	c #3C66C1",
"u 	c #3A65BF",
"v 	c #3A64BE",
"w 	c #3963BD",
"x 	c #3863BC",
"y 	c #587AC3",
"z 	c #EFF1F4",
"A 	c #BDBDBD",
"B 	c #FCFCFC",
"C 	c #416CC9",
"D 	c #3F6BC7",
"E 	c #3F6AC5",
"F 	c #5C7EC8",
"G 	c #3964BD",
"H 	c #3963BC",
"I 	c #3862BB",
"J 	c #3761BA",
"K 	c #3661B9",
"L 	c #3660B8",
"M 	c #93A7D2",
"N 	c #FBFBFC",
"O 	c #D9DADA",
"P 	c #DBE1EF",
"Q 	c #3F6AC6",
"R 	c #3C67C2",
"S 	c #7D98D1",
"T 	c #9DB0D8",
"U 	c #3863BB",
"V 	c #3762BA",
"W 	c #3761B9",
"X 	c #355FB7",
"Y 	c #355FB6",
"Z 	c #345EB5",
"` 	c #345DB4",
" .	c #D7DDEA",
"..	c #6B8CD1",
"+.	c #406CC7",
"@.	c #3660B9",
"#.	c #355EB6",
"$.	c #345DB5",
"%.	c #335DB3",
"&.	c #325CB2",
"*.	c #325BB1",
"=.	c #5D7CBD",
"-.	c #C0C0C0",
";.	c #E9ECF3",
">.	c #3B65C0",
",.	c #335DB4",
"'.	c #335CB3",
").	c #325BB2",
"!.	c #315AB1",
"~.	c #315AB0",
"{.	c #3059AF",
"].	c #2F58AE",
"^.	c #E7EAEF",
"/.	c #BCBCBD",
"(.	c #E8E9E9",
"_.	c #B2C2E1",
":.	c #3D67C2",
"<.	c #6383C5",
"[.	c #9BAED5",
"}.	c #D4DAE6",
"|.	c #3059AE",
"1.	c #2F58AD",
"2.	c #2E57AC",
"3.	c #2E56AB",
"4.	c #ABB9D7",
"5.	c #E5E5E5",
"6.	c #7894D0",
"7.	c #3A65BE",
"8.	c #9CAFD6",
"9.	c #DFE3E9",
"0.	c #2F57AC",
"a.	c #2E57AB",
"b.	c #2D56AA",
"c.	c #2D55A9",
"d.	c #2C54A8",
"e.	c #6C87BD",
"f.	c #F8F8F9",
"g.	c #FDFDFD",
"h.	c #6585C9",
"i.	c #7993CA",
"j.	c #9AADD4",
"k.	c #3058AE",
"l.	c #2D55AA",
"m.	c #2C55A9",
"n.	c #2B53A7",
"o.	c #2A52A6",
"p.	c #5775B4",
"q.	c #6484C7",
"r.	c #8FA4D0",
"s.	c #2B52A6",
"t.	c #2A52A5",
"u.	c #2951A4",
"v.	c #2850A3",
"w.	c #5573B1",
"x.	c #6282C5",
"y.	c #365FB7",
"z.	c #2C54A9",
"A.	c #2B54A8",
"B.	c #2950A3",
"C.	c #2850A2",
"D.	c #274FA1",
"E.	c #274EA0",
"F.	c #5471AF",
"G.	c #FDFEFE",
"H.	c #6180C2",
"I.	c #284FA2",
"J.	c #264EA0",
"K.	c #264D9F",
"L.	c #254C9E",
"M.	c #5270AD",
"N.	c #F6F6F6",
"O.	c #8BA1CE",
"P.	c #315BB1",
"Q.	c #2D56AB",
"R.	c #254D9E",
"S.	c #254C9D",
"T.	c #244B9C",
"U.	c #234A9B",
"V.	c #8296BF",
"W.	c #F2F2F2",
"X.	c #DCDCDC",
"Y.	c #BBC6DE",
"Z.	c #274EA1",
"`.	c #244A9B",
" +	c #234A9A",
".+	c #224999",
"++	c #224898",
"@+	c #B8C2D7",
"#+	c #D6D7D7",
"$+	c #B5B5B6",
"%+	c #EBEDF0",
"&+	c #3A61B1",
"*+	c #2F57AD",
"=+	c #2B53A6",
"-+	c #23499A",
";+	c #224899",
">+	c #214898",
",+	c #214797",
"'+	c #2B4F9A",
")+	c #EAECEF",
"!+	c #AFB0B0",
"~+	c #768FC3",
"{+	c #2A51A5",
"]+	c #204696",
"^+	c #1F4695",
"/+	c #1F4594",
"(+	c #8295BB",
"_+	c #F9F9F9",
":+	c #CBCBCB",
"<+	c #E8EAEE",
"[+	c #365CAB",
"}+	c #22499A",
"|+	c #204796",
"1+	c #2A4E98",
"2+	c #E8E9EC",
"3+	c #C5C6C6",
"4+	c #F0F0F0",
"5+	c #BBC5DA",
"6+	c #889CC5",
"7+	c #4766A7",
"8+	c #1F4595",
"9+	c #BEC6D7",
"0+	c #EDEEEE",
"a+	c #8C8D8D",
"b+	c #8195C1",
"c+	c #244B9D",
"d+	c #B9C3D8",
"e+	c #8497BE",
"f+	c #F9F9FA",
"g+	c #838384",
"h+	c #B7B7B7",
"i+	c #EFF0F0",
"j+	c #899CC3",
"k+	c #4766A8",
"l+	c #5370AC",
"m+	c #536FAB",
"n+	c #526FAA",
"o+	c #526EAA",
"p+	c #92A3C4",
"q+	c #EFEFF0",
"r+	c #B1B1B1",
"s+	c #B6B7B7",
"t+	c #B8C1D6",
"u+	c #395BA1",
"v+	c #204695",
"w+	c #36579C",
"x+	c #BCC4D6",
"y+	c #A6A6A7",
"z+	c #8C8C8C",
"A+	c #E5E7EB",
"B+	c #8699BE",
"C+	c #36579D",
"D+	c #889ABE",
"E+	c #E6E8EB",
"F+	c #EEEEEF",
"G+	c #848485",
"H+	c #B9B9BA",
"I+	c #F5F5F5",
"J+	c #F0F1F2",
"K+	c #CFD4DE",
"L+	c #9AA9C6",
"M+	c #8D9EC1",
"N+	c #4D6AA5",
"O+	c #899BBF",
"P+	c #9BA9C6",
"Q+	c #D1D6E0",
"R+	c #F2F2F3",
"S+	c #F4F4F4",
"T+	c #B4B4B4",
"U+	c #8F8F8F",
"V+	c #CCCDCD",
"W+	c #EAEBEB",
"X+	c #EDEDED",
"Y+	c #FAFAFB",
"Z+	c #F1F2F2",
"`+	c #EAEAEA",
" @	c #CACACB",
".@	c #8A8A8A",
"                                                                ",
"                            . + + @                             ",
"                    # $ % & * * * * & % = -                     ",
"                ; > , ' ) ! ~ ~ ~ ~ ! { ] , > -                 ",
"              ^ , / ( ~ ~ ~ ~ ~ _ _ : < [ } | , 1               ",
"            2 3 4 ~ ~ ~ ~ ~ _ 5 6 [ 7 8 9 0 a b c d             ",
"          2 3 ! ~ ~ ~ _ _ : e f f g h a i j k l m n o           ",
"        p 3 ! ~ q _ r < [ 7 f f f f s t k u v w x y z A         ",
"        B ) _ _ : C [ D E 0 f f f f F v G H I J K L M N         ",
"      O P r < [ 7 Q 9 0 a R S f f T H U V W L X Y Z `  .o       ",
"      N ..+.8 E 0 a i j k l v G x I J @.L X #.$.%.&.*.=.,       ",
"    -.;.Q h 0 a R t >.u G H I V W L X #.Z ,.'.).!.~.{.].^./.    ",
"    (._.a :.j k u v G x I J @.<.[.}.).'.&.*.~.{.|.1.2.3.4.5.    ",
"    * 6.k l 7.G H I V W 8.9.f f f f ).!.~.{.].0.a.b.c.d.e.f.    ",
"    g.h.v G x I J @.L Y i.j.9.f f f {.k.1.2.3.l.m.d.n.o.p.&     ",
"    B q.I J W L X #.$.,.'.).r.f f f 2.3.b.m.d.n.s.t.u.v.w.&     ",
"    B x.L y.Y Z ` '.).*.~.{.{.f f f l.z.A.n.o.u.B.C.D.E.F.G.    ",
"    B H.#.$.,.'.).!.{.|.1.2.2.f f f n.o.t.u.v.I.D.J.K.L.M.&     ",
"    N.O.'.).P.~.{.].1.2.Q.l.l.f f f u.B.C.D.E.K.R.S.T.U.V.W.    ",
"    X.Y.~.{.|.1.2.3.l.m.d.n.n.f f f I.Z.J.K.S.T.`. +.+++@+#+    ",
"    $+%+&+*+2.Q.l.d.n.=+t.u.u.f f f K.L.S.T.U.-+;+>+,+'+)+!+    ",
"      , ~+l.m.d.n.o.{+u.v.I.I.f f f T.U. +.+++,+]+^+/+(+_+      ",
"      :+<+[+=+t.u.B.I.D.E.K.K.f f f }+;+>+|+]+/+/+/+1+2+3+      ",
"        4+5+u.v.D.E.K.R.S.T.6+f f f 7+]+8+/+/+/+/+/+9+0+        ",
"        a+, b+J.K.L.c+T.d+f f f f f f f /+/+/+/+/+e+f+g+        ",
"          h+i+j+T.U.-+.+k+l+m+n+o+o+o+o+/+/+/+/+p+q+r+          ",
"            s+, t+u+,+|+v+/+/+/+/+/+/+/+/+/+w+x+* y+            ",
"              z+4+A+B+C+/+/+/+/+/+/+/+/+w+D+E+F+G+              ",
"                  H+I+J+K+L+M+N+N+O+P+Q+R+S+T+                  ",
"                      U+V+W+X+* Y+Z+`+ @.@                      ",
"                                                                ",
"                                                                "};
