/* XPM */
static char * 1397816690_edit_add_xpm[] = {
"32 32 94 2",
"  	c None",
". 	c #00BB00",
"+ 	c #00AD00",
"@ 	c #00AF00",
"# 	c #00BC00",
"$ 	c #009A00",
"% 	c #006400",
"& 	c #006C00",
"* 	c #006600",
"= 	c #009F00",
"- 	c #006E00",
"; 	c #006D00",
"> 	c #006700",
", 	c #006A00",
"' 	c #007200",
") 	c #007100",
"! 	c #006B00",
"~ 	c #009C00",
"{ 	c #006F00",
"] 	c #007600",
"^ 	c #007500",
"/ 	c #007000",
"( 	c #00A100",
"_ 	c #009D00",
": 	c #007300",
"< 	c #007A00",
"[ 	c #00A200",
"} 	c #007900",
"| 	c #007E00",
"1 	c #00A300",
"2 	c #00A000",
"3 	c #007D00",
"4 	c #008300",
"5 	c #00A400",
"6 	c #008200",
"7 	c #008700",
"8 	c #00A500",
"9 	c #008C00",
"0 	c #008800",
"a 	c #00A600",
"b 	c #009000",
"c 	c #008D00",
"d 	c #00A800",
"e 	c #00C000",
"f 	c #00BA00",
"g 	c #00B900",
"h 	c #00B800",
"i 	c #00B700",
"j 	c #00B600",
"k 	c #00B400",
"l 	c #009100",
"m 	c #009500",
"n 	c #009200",
"o 	c #008100",
"p 	c #008A00",
"q 	c #008E00",
"r 	c #009300",
"s 	c #009600",
"t 	c #009800",
"u 	c #009900",
"v 	c #009700",
"w 	c #008F00",
"x 	c #008600",
"y 	c #008900",
"z 	c #009400",
"A 	c #009E00",
"B 	c #00A900",
"C 	c #00AA00",
"D 	c #00AB00",
"E 	c #00C400",
"F 	c #00C200",
"G 	c #00C100",
"H 	c #00BF00",
"I 	c #00BE00",
"J 	c #00BD00",
"K 	c #00B300",
"L 	c #00AE00",
"M 	c #00B200",
"N 	c #00C500",
"O 	c #00C600",
"P 	c #00C300",
"Q 	c #00C900",
"R 	c #00CA00",
"S 	c #00CE00",
"T 	c #00C800",
"U 	c #00D200",
"V 	c #00D300",
"W 	c #00CB00",
"X 	c #00D600",
"Y 	c #00D700",
"Z 	c #00D800",
"` 	c #00CC00",
" .	c #00DA00",
"..	c #00C700",
"                                                                ",
"                                                                ",
"                          . + @ @ + #                           ",
"                          $ % & & * =                           ",
"                          $ * - ; > =                           ",
"                          $ , ' ) ! =                           ",
"                          ~ { ] ^ / (                           ",
"                          _ : < < ^ [                           ",
"                          = } | | < 1                           ",
"                          2 3 4 4 | 5                           ",
"                          [ 6 7 7 4 8                           ",
"                          1 7 9 9 0 a                           ",
"                          8 9 b b c d                           ",
"    e f . f g h i j j k i 5 l m m n a i k j j i h g f f f e     ",
"    ~ o p 9 q l r m s t u t t u u t t u t v m r l w 9 p 6 (     ",
"    u 3 x y 9 w n z v u $ ~ _ _ _ _ ~ $ u v m n b c y 7 | A     ",
"    ~ 4 9 q l z v $ ~ A = 2 ( [ [ ( ( 2 A ~ $ v m n w 9 4 (     ",
"    ~ 4 9 w r s u ~ = ( 1 8 a a a a 8 1 ( = _ $ v r b c 4 (     ",
"    a r $ ~ = ( 5 a d B C C C D D C C D B d a 5 [ = ~ $ r C     ",
"    E F G e H I J . f g g K L @ @ L K g g f . # I H e G F E     ",
"                          j M k k K j                           ",
"                          g i h h i g                           ",
"                          . # J J # .                           ",
"                          I e G G e I                           ",
"                          G N N O N e                           ",
"                          P Q R R Q P                           ",
"                          O S S S S N                           ",
"                          T U U V U T                           ",
"                          W X Y Z X R                           ",
"                          ` Y  . .Z W                           ",
"                          T Q R R Q ..                          ",
"                                                                "};
