/* XPM */
static char * 1397816080_Gnome_Go_Down_32_xpm[] = {
"32 32 140 2",
"  	c None",
". 	c #224C89",
"+ 	c #28518C",
"@ 	c #29518C",
"# 	c #27508B",
"$ 	c #264F8B",
"% 	c #224B89",
"& 	c #40679F",
"* 	c #6E94C2",
"= 	c #638BBC",
"- 	c #628ABB",
"; 	c #6088BA",
"> 	c #507AB0",
", 	c #4F78AF",
"' 	c #4E78AF",
") 	c #4D77AE",
"! 	c #567FB3",
"~ 	c #375F99",
"{ 	c #436AA0",
"] 	c #5F8ABE",
"^ 	c #4878B3",
"/ 	c #4A7AB4",
"( 	c #4A79B4",
"_ 	c #4877B3",
": 	c #3566A5",
"< 	c #3465A4",
"[ 	c #3264A3",
"} 	c #4674AE",
"| 	c #39619A",
"1 	c #41699F",
"2 	c #5D88BC",
"3 	c #4878B2",
"4 	c #4A79B3",
"5 	c #4877B2",
"6 	c #4572AC",
"7 	c #386099",
"8 	c #41689F",
"9 	c #5D87BC",
"0 	c #4472AC",
"a 	c #365F99",
"b 	c #5B87BB",
"c 	c #4371AB",
"d 	c #365E99",
"e 	c #3F679F",
"f 	c #5B86BB",
"g 	c #4270AB",
"h 	c #355E98",
"i 	c #3F669E",
"j 	c #5A85BB",
"k 	c #3364A3",
"l 	c #4170AB",
"m 	c #345D98",
"n 	c #3E669E",
"o 	c #5A85BA",
"p 	c #416FAB",
"q 	c #335D98",
"r 	c #3C649C",
"s 	c #5885BA",
"t 	c #4978B3",
"u 	c #3364A4",
"v 	c #3F6FAA",
"w 	c #335B97",
"x 	c #214C88",
"y 	c #25508B",
"z 	c #244F8A",
"A 	c #204B87",
"B 	c #3F689F",
"C 	c #5884BA",
"D 	c #3F6EAA",
"E 	c #345E99",
"F 	c #224D89",
"G 	c #214D89",
"H 	c #224D8A",
"I 	c #1E4C87",
"J 	c #264E8A",
"K 	c #5780B2",
"L 	c #6089BB",
"M 	c #5781B6",
"N 	c #5781B5",
"O 	c #5A84B8",
"P 	c #527EB7",
"Q 	c #4979B3",
"R 	c #3A6AA7",
"S 	c #416EA8",
"T 	c #3E6BA6",
"U 	c #3D6AA6",
"V 	c #426FA9",
"W 	c #3A659F",
"X 	c #204B86",
"Y 	c #2E5791",
"Z 	c #5D86B9",
"` 	c #4F7EB6",
" .	c #3465A5",
"..	c #3868A7",
"+.	c #3E6BA4",
"@.	c #26518A",
"#.	c #315C97",
"$.	c #5B85BA",
"%.	c #4C7AB5",
"&.	c #3667A5",
"*.	c #3D6BA6",
"=.	c #264F91",
"-.	c #3C6199",
";.	c #3466A5",
">.	c #3D6BA7",
",.	c #2E5B89",
"'.	c #3E699F",
").	c #3C6BA8",
"!.	c #2D5995",
"~.	c #436DA5",
"{.	c #5582B9",
"].	c #315C98",
"^.	c #235193",
"/.	c #4774AB",
"(.	c #5280B8",
"_.	c #3969A7",
":.	c #33619E",
"<.	c #1E5197",
"[.	c #234A86",
"}.	c #4B78B1",
"|.	c #4F7DB7",
"1.	c #3868A6",
"2.	c #3764A3",
"3.	c #1E4B85",
"4.	c #264E88",
"5.	c #4D7BB5",
"6.	c #4E7DB6",
"7.	c #3567A6",
"8.	c #3767A6",
"9.	c #224A84",
"0.	c #28528B",
"a.	c #4E7DB7",
"b.	c #3667A6",
"c.	c #234C87",
"d.	c #2D5993",
"e.	c #4D7CB7",
"f.	c #3A6BA8",
"g.	c #26518D",
"h.	c #315E9C",
"i.	c #2B5998",
"                                                                ",
"                                                                ",
"                                                                ",
"                                                                ",
"                                                                ",
"                    . + @ + + + # # # # $ %                     ",
"                    & * = = - ; > , ' ) ! ~                     ",
"                    { ] ^ / ( _ : < < [ } |                     ",
"                    1 2 3 4 4 5 : < < [ 6 7                     ",
"                    8 9 3 4 4 5 : < < [ 0 a                     ",
"                    & b 3 4 4 5 : < < [ c d                     ",
"                    e f 3 4 4 5 : < < [ g h                     ",
"                    i j 3 4 4 5 : < < k l m                     ",
"                    n o ^ 4 4 5 : < < k p q                     ",
"                    r s t 4 4 5 : < < u v w                     ",
"          x y z z A B C t 4 4 5 : < < u D E A F G H I           ",
"          J K L M N O P Q 4 4 5 : < < < R S T U V W X           ",
"            Y Z ` ( / 4 4 4 4 5 : < < < < <  ...+.@.            ",
"              #.$.%.Q 4 4 4 4 5 : < < < < < &.*.=.              ",
"                -.o ( 4 4 4 4 5 : < < < < ;.>.,.                ",
"                  '.C 4 4 4 4 5 : < < < < ).!.                  ",
"                    ~.{.Q 4 4 5 : < < < R ].                    ",
"                    ^./.(.t 4 5 : < < _.:.<.                    ",
"                      [.}.|.4 5 : u 1.2.3.                      ",
"                        4.5.6.5 : 7.8.9.                        ",
"                          0.a.( b...c.                          ",
"                            d.e.f.g.                            ",
"                              h.i.                              ",
"                                                                ",
"                                                                ",
"                                                                ",
"                                                                "};
