/* XPM */
static char * error_xpm[] = {
"32 32 322 2",
"  	c None",
". 	c #AF1717",
"+ 	c #AA1616",
"@ 	c #AE1919",
"# 	c #AD1919",
"$ 	c #CE6060",
"% 	c #ECA9A9",
"& 	c #CC5D5D",
"* 	c #A31616",
"= 	c #C75454",
"- 	c #E59999",
"; 	c #CA5A5A",
"> 	c #EEAEAE",
", 	c #E89E9E",
"' 	c #D57171",
") 	c #BD3636",
"! 	c #A11616",
"~ 	c #C44B4B",
"{ 	c #E79D9D",
"] 	c #E59292",
"^ 	c #D97676",
"/ 	c #C03E3E",
"( 	c #E79C9C",
"_ 	c #CB5050",
": 	c #D26666",
"< 	c #BD3535",
"[ 	c #A01616",
"} 	c #C24747",
"| 	c #E28989",
"1 	c #C73B3B",
"2 	c #CC4D4D",
"3 	c #D05C5C",
"4 	c #BF3D3D",
"5 	c #C75151",
"6 	c #ECA8A8",
"7 	c #C64242",
"8 	c #C64141",
"9 	c #CA4E4E",
"0 	c #D16464",
"a 	c #BC3434",
"b 	c #9F1717",
"c 	c #E89C9C",
"d 	c #E28888",
"e 	c #C73939",
"f 	c #C53333",
"g 	c #CC4C4C",
"h 	c #CF5959",
"i 	c #BB3838",
"j 	c #E79E9E",
"k 	c #C63F3F",
"l 	c #C53E3E",
"m 	c #C94A4A",
"n 	c #D06161",
"o 	c #BB3434",
"p 	c #AD1A1A",
"q 	c #E38787",
"r 	c #C73838",
"s 	c #C53232",
"t 	c #CE5050",
"u 	c #A11818",
"v 	c #C53C3C",
"w 	c #C43A3A",
"x 	c #C94848",
"y 	c #D05E5E",
"z 	c #BB3333",
"A 	c #9E1717",
"B 	c #C24848",
"C 	c #E89B9B",
"D 	c #E28787",
"E 	c #C73737",
"F 	c #C53131",
"G 	c #C63131",
"H 	c #C63030",
"I 	c #CA4040",
"J 	c #D15959",
"K 	c #BE3B3B",
"L 	c #881414",
"M 	c #C24545",
"N 	c #D16666",
"O 	c #C43939",
"P 	c #C43838",
"Q 	c #C94545",
"R 	c #BB3535",
"S 	c #9E1818",
"T 	c #A61919",
"U 	c #E28686",
"V 	c #C83636",
"W 	c #CB3F3F",
"X 	c #D25959",
"Y 	c #931616",
"Z 	c #C24343",
"` 	c #D16363",
" .	c #C53939",
"..	c #C43636",
"+.	c #C43535",
"@.	c #C94343",
"#.	c #D05F5F",
"$.	c #BD3E3E",
"%.	c #E38686",
"&.	c #C72F2F",
"*.	c #CB3E3E",
"=.	c #D25858",
"-.	c #BE3A3A",
";.	c #931717",
">.	c #C24444",
",.	c #C43737",
"'.	c #C43434",
").	c #C94141",
"!.	c #D25C5C",
"~.	c #E69696",
"{.	c #E38585",
"].	c #C62828",
"^.	c #C62626",
"/.	c #CB3737",
"(.	c #D35454",
"_.	c #C23D3D",
":.	c #C44646",
"<.	c #C84444",
"[.	c #C43232",
"}.	c #C52E2E",
"|.	c #C63434",
"1.	c #C11A1A",
"2.	c #BE1010",
"3.	c #BE0D0D",
"4.	c #BF0D0D",
"5.	c #C00E0E",
"6.	c #C52121",
"7.	c #CE4040",
"8.	c #C13232",
"9.	c #921717",
"0.	c #C44343",
"a.	c #C02222",
"b.	c #BD1515",
"c.	c #BA0909",
"d.	c #BB0A0A",
"e.	c #BD0B0B",
"f.	c #BE0C0C",
"g.	c #C00F0F",
"h.	c #C11010",
"i.	c #C72222",
"j.	c #CF4141",
"k.	c #C23333",
"l.	c #C34141",
"m.	c #CB4949",
"n.	c #BE1C1C",
"o.	c #B90808",
"p.	c #BD0C0C",
"q.	c #C10F0F",
"r.	c #C21111",
"s.	c #C82323",
"t.	c #D14242",
"u.	c #C33434",
"v.	c #921818",
"w.	c #BD2D2D",
"x.	c #BF1B1B",
"y.	c #C21010",
"z.	c #C31111",
"A.	c #C92424",
"B.	c #D14343",
"C.	c #C04040",
"D.	c #DE7A7A",
"E.	c #C32424",
"F.	c #C51313",
"G.	c #CB2626",
"H.	c #D44545",
"I.	c #BB2C2C",
"J.	c #751313",
"K.	c #BF4040",
"L.	c #E38989",
"M.	c #DD7171",
"N.	c #BF1212",
"O.	c #C41212",
"P.	c #C61414",
"Q.	c #C81515",
"R.	c #CA1717",
"S.	c #CF2A2A",
"T.	c #D74848",
"U.	c #BC2D2D",
"V.	c #DD7070",
"W.	c #BE1212",
"X.	c #BF0E0E",
"Y.	c #CC1919",
"Z.	c #CE1B1B",
"`.	c #D42E2E",
" +	c #DB4B4B",
".+	c #BE2F2F",
"++	c #BF3F3F",
"@+	c #BD1111",
"#+	c #BC0B0B",
"$+	c #C71C1C",
"%+	c #C91E1E",
"&+	c #D11E1E",
"*+	c #D32020",
"=+	c #D83232",
"-+	c #DF4F4F",
";+	c #BF3030",
">+	c #DC7070",
",+	c #BC1010",
"'+	c #C61B1B",
")+	c #D14040",
"!+	c #D34242",
"~+	c #CD2121",
"{+	c #D42020",
"]+	c #D62222",
"^+	c #D92525",
"/+	c #DD3636",
"(+	c #E35353",
"_+	c #C03232",
":+	c #DC6F6F",
"<+	c #BB0F0F",
"[+	c #C51A1A",
"}+	c #D03F3F",
"|+	c #C63636",
"1+	c #D74646",
"2+	c #D22626",
"3+	c #D62323",
"4+	c #DC2828",
"5+	c #DE2A2A",
"6+	c #E33C3C",
"7+	c #E85757",
"8+	c #C03F3F",
"9+	c #E18888",
"0+	c #E07E7E",
"a+	c #BA0E0E",
"b+	c #C31818",
"c+	c #CF3E3E",
"d+	c #C83838",
"e+	c #DB4949",
"f+	c #D72A2A",
"g+	c #DF2B2B",
"h+	c #E22D2D",
"i+	c #E53030",
"j+	c #E84040",
"k+	c #EC5B5B",
"l+	c #C33535",
"m+	c #BF3E3E",
"n+	c #E18787",
"o+	c #E07D7D",
"p+	c #B80707",
"q+	c #C21717",
"r+	c #CD3D3D",
"s+	c #991919",
"t+	c #CA3B3B",
"u+	c #DF4D4D",
"v+	c #DC2F2F",
"w+	c #DF2A2A",
"x+	c #E32E2E",
"y+	c #E63131",
"z+	c #E93333",
"A+	c #EB3535",
"B+	c #EE4545",
"C+	c #EF5E5E",
"D+	c #C33636",
"E+	c #DE8181",
"F+	c #E18282",
"G+	c #BD1B1B",
"H+	c #B60606",
"I+	c #BC0A0A",
"J+	c #C01515",
"K+	c #CC3B3B",
"L+	c #9C1A1A",
"M+	c #CC3D3D",
"N+	c #E35151",
"O+	c #E23434",
"P+	c #ED3737",
"Q+	c #F03939",
"R+	c #F13B3B",
"S+	c #F25252",
"T+	c #ED5C5C",
"U+	c #9C1C1C",
"V+	c #A81818",
"W+	c #C34646",
"X+	c #CF5656",
"Y+	c #BB1818",
"Z+	c #B70606",
"`+	c #BE1414",
" @	c #CA3A3A",
".@	c #C03131",
"+@	c #9B1A1A",
"@@	c #CF4040",
"#@	c #E85555",
"$@	c #E83939",
"%@	c #EC3636",
"&@	c #F03A3A",
"*@	c #F43D3D",
"=@	c #F74D4D",
"-@	c #F76565",
";@	c #C53838",
">@	c #851818",
",@	c #A21717",
"'@	c #B62424",
")@	c #BC1919",
"!@	c #BD1212",
"~@	c #C03030",
"{@	c #D24242",
"]@	c #ED5959",
"^@	c #EE3F3F",
"/@	c #F23C3C",
"(@	c #F84F4F",
"_@	c #FC6969",
":@	c #C73A3A",
"<@	c #8F1A1A",
"[@	c #B62525",
"}@	c #BF2020",
"|@	c #BF2F2F",
"1@	c #9B1B1B",
"2@	c #F15D5D",
"3@	c #F44F4F",
"4@	c #F96666",
"5@	c #C83B3B",
"6@	c #B72525",
"7@	c #C63939",
"8@	c #BE2E2E",
"9@	c #9A1B1B",
"0@	c #D64646",
"a@	c #F36161",
"b@	c #9A1717",
"c@	c #AE1A1A",
"d@	c #8D1515",
"e@	c #961B1B",
"f@	c #A91E1E",
"g@	c #8A1818",
"                                                                ",
"                                                                ",
"              . +                             @ #               ",
"            $ % & *                         @ = - ;             ",
"          $ > , ' ) !                     @ ~ { ] ^ /           ",
"        $ > ( _ _ : < [                 # } { | 1 2 3 4         ",
"      5 6 ( _ 7 8 9 0 a b             # } c d e f f g h i       ",
"    . 6 j _ 7 8 k l m n o b         p } c q r s s s s t h u     ",
"    + & ' _ 8 k l v w x y z A     p B C D E F G H H I J K L     ",
"      * M N 9 l v w O P Q 3 R S T } C U V H H H H W X K Y       ",
"        ! Z ` m w  .P ..+.@.#.$.} C %.V H &.&.&.*.=.-.;.        ",
"          [ >.n x ,...+.'.f ).!.~.{.V &.&.].^./.(._.;.          ",
"            b :.y <.+.'.[.s }.|.*.1.2.3.4.5.6.7.8.9.            ",
"              b 0.3 @.[.a.b.c.d.e.f.4.g.h.i.j.k.9.              ",
"                A l.m.n.o.c.d.p.3.5.q.r.s.t.u.v.                ",
"                  S w.e x.d.p.3.5.y.z.A.B.+.v.                  ",
"                    C.D.E.e.3.5.y.z.F.G.H.I.J.                  ",
"                  K.L.M.N.f.5.y.O.P.Q.R.S.T.U.                  ",
"                K.| V.W.p.X.q.z.F.Q.R.Y.Z.`. +.+                ",
"              ++| V.@+#+3.g.z.$+%+R.Y.Z.&+*+=+-+;+              ",
"            ++d >+,+d.p.X.y.'+)+!+~+Z.&+{+]+^+/+(+_+            ",
"          ++d :+<+c.#+3.g.[+}++.|+1+2+*+3+^+4+5+6+7+k.          ",
"        8+9+0+a+o.d.e.4.b+c+u.v.v.d+e+f+^+4+g+h+i+j+k+l+        ",
"      m+n+o+n.p+o.d.p.q+r+k.v.    s+t+u+v+w+x+y+z+A+B+C+D+      ",
"    # E+F+G+H+p+c.I+J+K+8.9.        L+M+N+O+i+z+P+Q+R+S+T+U+    ",
"    V+W+X+Y+Z+p+c.`+ @.@9.            +@@@#@$@%@&@*@=@-@;@>@    ",
"      ,@'@,.)@p+!@d+~@;.                +@{@]@^@/@(@_@:@<@      ",
"        b [@;@}@E |@;.                    1@H.2@3@4@5@<@        ",
"          S 6@7@8@;.                        9@0@a@7@<@          ",
"            b@c@d@                            e@f@g@            ",
"                                                                ",
"                                                                "};
