/* XPM */
static char * information_icon_xpm[] = {
"32 32 59 1",
" 	g None",
".	g #A4A4A4",
"+	g #D0D0D0",
"@	g #F0F0F0",
"#	g #FDFDFD",
"$	g #A3A3A3",
"%	g #A2A2A2",
"&	g #EEEEEE",
"*	g #FCFCFC",
"=	g #D5D5D5",
"-	g #A1A1A1",
";	g #FBFBFB",
">	g #A0A0A0",
",	g #FAFAFA",
"'	g #9E9E9E",
")	g #F9F9F9",
"!	g #D3D3D3",
"~	g #9D9D9D",
"{	g #F7F7F7",
"]	g #9B9B9B",
"^	g #F6F6F6",
"/	g #9A9A9A",
"(	g #F5F5F5",
"_	g #9C9C9C",
":	g #989898",
"<	g #F4F4F4",
"[	g #999999",
"}	g #969696",
"|	g #F3F3F3",
"1	g #979797",
"2	g #959595",
"3	g #F2F2F2",
"4	g #939393",
"5	g #F1F1F1",
"6	g #929292",
"7	g #919191",
"8	g #8F8F8F",
"9	g #ECECEC",
"0	g #8D8D8D",
"a	g #EBEBEB",
"b	g #898989",
"c	g #8B8B8B",
"d	g #E9E9E9",
"e	g #838383",
"f	g #888888",
"g	g #E7E7E7",
"h	g #7D7D7D",
"i	g #848484",
"j	g #E6E6E6",
"k	g #787878",
"l	g #808080",
"m	g #E4E4E4",
"n	g #737373",
"o	g #7C7C7C",
"p	g #AFAFAF",
"q	g #E3E3E3",
"r	g #ADADAD",
"s	g #757575",
"t	g #727272",
"                                ",
"                                ",
"                                ",
"    ......................      ",
"   ........................     ",
"  ...+@################@+...    ",
"  $$+####################+$$    ",
"  %%&********=..=********&%%    ",
"  --;;;;;;;;;....;;;;;;;;;--    ",
"  >>,,,,,,,,,....,,,,,,,,,>>    ",
"  '')))))))))!%%!)))))))))''    ",
"  ~~{{{{{{{{{{{{{{{{{{{{{{~~    ",
"  ]]^^^^^^^^^^^^^^^^^^^^^^]]    ",
"  //(((((((________(((((((//    ",
"  ::<<<<<<<[[[[[[[[<<<<<<<::    ",
"  }}|||||||||1111|||||||||}}    ",
"  22333333333222233333333322    ",
"  44555555555666655555555544    ",
"  77&&&&&&&&&8888&&&&&&&&&77    ",
"  88999999999000099999999988    ",
"  00aaaaaaaaabbbbaaaaaaaaa00    ",
"  ccdddddddddeeeedddddddddcc    ",
"  ffggggggggghhhhgggggggggff    ",
"  iijjjjjjjkkkkkkkkjjjjjjjii    ",
"  ll=mmmmmmnnnnnnnnmmmmmm=ll    ",
"  oopqqqqqqqqqqqqqqqqqqqqpoo    ",
"  kkkr!qqqqqqqqqqqqqqqq!rkkk    ",
"   ssssssssssssssssssssssss     ",
"    tttttttttttttttttttttt      ",
"                                ",
"                                ",
"                                "};
