/* XPM */
static char * moonphase_xpm[] = {
"32 32 155 2",
"  	c None",
". 	c #747474",
"+ 	c #848484",
"@ 	c #888888",
"# 	c #8C8C8C",
"$ 	c #929292",
"% 	c #868686",
"& 	c #717171",
"* 	c #787878",
"= 	c #767676",
"- 	c #6F6F6F",
"; 	c #6E6E6E",
"> 	c #7A7A7A",
", 	c #858585",
"' 	c #5D5D5D",
") 	c #616161",
"! 	c #707070",
"~ 	c #7B7B7B",
"{ 	c #828282",
"] 	c #7C7C7C",
"^ 	c #838383",
"/ 	c #999999",
"( 	c #797979",
"_ 	c #4E4E4E",
": 	c #5A5A5A",
"< 	c #696969",
"[ 	c #636363",
"} 	c #6B6B6B",
"| 	c #A5A5A5",
"1 	c #9A9A9A",
"2 	c #A1A1A1",
"3 	c #979797",
"4 	c #898989",
"5 	c #444444",
"6 	c #4F4F4F",
"7 	c #757575",
"8 	c #656565",
"9 	c #777777",
"0 	c #7F7F7F",
"a 	c #909090",
"b 	c #A0A0A0",
"c 	c #B1B1B1",
"d 	c #AEAEAE",
"e 	c #919191",
"f 	c #989898",
"g 	c #939393",
"h 	c #727272",
"i 	c #434343",
"j 	c #4C4C4C",
"k 	c #5B5B5B",
"l 	c #686868",
"m 	c #646464",
"n 	c #6A6A6A",
"o 	c #737373",
"p 	c #818181",
"q 	c #A8A8A8",
"r 	c #949494",
"s 	c #A2A2A2",
"t 	c #8F8F8F",
"u 	c #424242",
"v 	c #4A4A4A",
"w 	c #676767",
"x 	c #8A8A8A",
"y 	c #ADADAD",
"z 	c #ABABAB",
"A 	c #484848",
"B 	c #454545",
"C 	c #515151",
"D 	c #7D7D7D",
"E 	c #9E9E9E",
"F 	c #BEBEBE",
"G 	c #B6B6B6",
"H 	c #969696",
"I 	c #4B4B4B",
"J 	c #474747",
"K 	c #606060",
"L 	c #8D8D8D",
"M 	c #B2B2B2",
"N 	c #A3A3A3",
"O 	c #B0B0B0",
"P 	c #9B9B9B",
"Q 	c #4D4D4D",
"R 	c #8E8E8E",
"S 	c #959595",
"T 	c #A7A7A7",
"U 	c #7E7E7E",
"V 	c #525252",
"W 	c #494949",
"X 	c #6D6D6D",
"Y 	c #B4B4B4",
"Z 	c #808080",
"` 	c #8B8B8B",
" .	c #B8B8B8",
"..	c #666666",
"+.	c #595959",
"@.	c #5F5F5F",
"#.	c #878787",
"$.	c #9D9D9D",
"%.	c #9C9C9C",
"&.	c #626262",
"*.	c #5C5C5C",
"=.	c #ACACAC",
"-.	c #BABABA",
";.	c #BBBBBB",
">.	c #BFBFBF",
",.	c #A4A4A4",
"'.	c #C1C1C1",
").	c #CBCBCB",
"!.	c #C8C8C8",
"~.	c #B3B3B3",
"{.	c #565656",
"].	c #C3C3C3",
"^.	c #C5C5C5",
"/.	c #C6C6C6",
"(.	c #C2C2C2",
"_.	c #6C6C6C",
":.	c #9F9F9F",
"<.	c #B9B9B9",
"[.	c #C0C0C0",
"}.	c #D4D4D4",
"|.	c #C9C9C9",
"1.	c #D2D2D2",
"2.	c #CDCDCD",
"3.	c #B5B5B5",
"4.	c #BDBDBD",
"5.	c #CFCFCF",
"6.	c #A6A6A6",
"7.	c #C7C7C7",
"8.	c #D6D6D6",
"9.	c #C4C4C4",
"0.	c #AAAAAA",
"a.	c #CACACA",
"b.	c #D1D1D1",
"c.	c #D7D7D7",
"d.	c #D5D5D5",
"e.	c #CECECE",
"f.	c #DFDFDF",
"g.	c #DDDDDD",
"h.	c #D9D9D9",
"i.	c #B7B7B7",
"j.	c #BCBCBC",
"k.	c #A9A9A9",
"l.	c #E0E0E0",
"m.	c #E6E6E6",
"n.	c #E2E2E2",
"o.	c #CCCCCC",
"p.	c #D8D8D8",
"q.	c #DADADA",
"r.	c #E1E1E1",
"s.	c #D3D3D3",
"t.	c #DBDBDB",
"u.	c #DEDEDE",
"v.	c #5E5E5E",
"w.	c #D0D0D0",
"x.	c #AFAFAF",
"                                                                ",
"                        . + @ # $ %   &                         ",
"                    * = = - ; = > , , @ @ #                     ",
"                ' ) ! ~ { ] @ ^ / , ^ { = ( / #                 ",
"              _ : ( > < [ } = ] $ | 1 2 / # 3 / 4               ",
"            5 6 } 7 ) ' 8 ; 9 0 a b c d 2 e f g 1 @ h           ",
"          i j k l m < l n o = p g a q ^ r e $ 4 s 1 t           ",
"        u v k w } ! ; - h * ~ # 1 f x ~ ] , g | y z s @         ",
"      A B C D h } ! & 9 9 p @ E a s ^ ] p { 9 | F G y H ,       ",
"      I J K = h & p D 0 p { 0 L M N ] ( ^ D D f M O s P #       ",
"    C u Q k < 0 o R 3 a S S g | / # a x R p ] e H T M % ; U     ",
"    V W 6 K X 4 > E N Y s E x ] @ Z a e 2 D ( ( U `  .$ ) -     ",
"  ..' 6 +.@.D N #.$ T d / 1 ^ $.z r L z %.7 * ( & . H | &.& !   ",
"    X V *.8 ~ a x e | 1 @ L Z E =.-.;.>.,.{ ] 7 = * t 2 a + o   ",
"  ; . V ' 8 - ] Z a f N g t N f b '.).!.~.4 Z D 4 ( a ~ f ~ !   ",
"  n > {.[ 8 & h , ` 4 %.b =. .;.G ].^./.^.(.$.x  .E U & ..= h   ",
"  _.& l K _.h > R f % b :./ <.[.>./.}.|.1.2.s s c | { ! X * X   ",
"  X ^ p o 7 ^ ( { #.^ # | e 3.;.4.].^.|.}.5. .6.G Y #.& ( D o   ",
"  w ^ f 4 R 2 3 D t s H r e N [.F ].7.!.7.8.|.=.g G H U t 4 h   ",
"  m ] g g N b ^ r s E S ` R ;./.].!.^.9./.).1.%.a ~.0.R #.Z h   ",
"    0 2 b T , > 4 H E $ R e  .^.|.[.|.).(.^.a.d $.| f # ^ ~     ",
"    h b T M S , # T P f g $.>.b.c.5.d.^.[.b.^.4.O ~.6.b + .     ",
"    } p / d 4.s y 1 z e.4.e.f.g.h.}./.!.e.9.].-.i.j.<.N +       ",
"      - # P k.$.Y G F !.h.l.m.n.h.}.b.o.9.(.<.F <.7.F $.9       ",
"        D S H k.G [.].o.p.q.l.r.q.s.).a.^.>.j.-.G -.| ^         ",
"        < % x P b <.>.).p.h.c.t.h.e./.].[.j.'.4.d / @           ",
"          8 4 g S ,.G F 5.u.h.t.q.2.^.F 4.'.[.k.H , v.          ",
"            ..U S / =.Y ].b.w.2.).9.'.j.-.M s 1 9 *.            ",
"                ] $.q y i.7.o.>.F F i.x.0.s H &                 ",
"                  h { ,.k.y j.3. .3.x.T $.+ ;                   ",
"                        U x a b s f ^                           ",
"                                                                "};
