/* XPM */
static char * information_xpm[] = {
"32 32 339 2",
"  	c None",
". 	c #67A1D4",
"+ 	c #6AA2D5",
"@ 	c #6CA4D6",
"# 	c #6EA4D6",
"$ 	c #6EA4D5",
"% 	c #6DA3D4",
"& 	c #6DA2D3",
"* 	c #6CA1D1",
"= 	c #6CA0D0",
"- 	c #6B9ECF",
"; 	c #6B9DCE",
"> 	c #6A9CCC",
", 	c #699ACB",
"' 	c #6999CA",
") 	c #6897C9",
"! 	c #6796C7",
"~ 	c #6695C5",
"{ 	c #6694C4",
"] 	c #6592C2",
"^ 	c #6491C0",
"/ 	c #638FBE",
"( 	c #628DBD",
"_ 	c #628CBB",
": 	c #6089B9",
"< 	c #5C85B6",
"[ 	c #5881B2",
"} 	c #567EB0",
"| 	c #6BA3D5",
"1 	c #FDFEFF",
"2 	c #FCFDFF",
"3 	c #FBFDFF",
"4 	c #FEFEFF",
"5 	c #577EAF",
"6 	c #71A7D7",
"7 	c #AFDDF2",
"8 	c #ADDBF1",
"9 	c #A9D8F1",
"0 	c #A6D5F0",
"a 	c #A1D2EF",
"b 	c #9DCEEE",
"c 	c #98CAED",
"d 	c #93C6EC",
"e 	c #8EC1EB",
"f 	c #89BDE9",
"g 	c #84B9E8",
"h 	c #80B6E7",
"i 	c #7CB2E6",
"j 	c #78B0E6",
"k 	c #76ADE5",
"l 	c #75ADE5",
"m 	c #597FB0",
"n 	c #76AAD9",
"o 	c #FAFCFF",
"p 	c #5B80AF",
"q 	c #78AAD9",
"r 	c #F9FBFF",
"s 	c #FBFCFF",
"t 	c #5C7FAF",
"u 	c #78ABD9",
"v 	c #5B7EAD",
"w 	c #78AAD8",
"x 	c #5A7CAC",
"y 	c #78A9D7",
"z 	c #F4F8FE",
"A 	c #F1F7FE",
"B 	c #F0F6FE",
"C 	c #EFF6FE",
"D 	c #EFF5FE",
"E 	c #EEF5FE",
"F 	c #EDF4FE",
"G 	c #F3F8FE",
"H 	c #5A7BAB",
"I 	c #77A8D6",
"J 	c #F9FCFF",
"K 	c #597AA9",
"L 	c #77A8D5",
"M 	c #ECF4FE",
"N 	c #ECF3FE",
"O 	c #F2F7FE",
"P 	c #5878A8",
"Q 	c #76A7D4",
"R 	c #EBF3FE",
"S 	c #EBF2FE",
"T 	c #5877A6",
"U 	c #76A6D4",
"V 	c #EAF2FE",
"W 	c #E9F1FE",
"X 	c #EAF3FE",
"Y 	c #F1F6FE",
"Z 	c #F8FBFF",
"` 	c #5776A6",
" .	c #76A5D3",
"..	c #E8F1FE",
"+.	c #5775A5",
"@.	c #75A5D2",
"#.	c #E7F1FE",
"$.	c #E7F0FE",
"%.	c #5674A3",
"&.	c #75A4D1",
"*.	c #E6F0FE",
"=.	c #E5EFFE",
"-.	c #F7FBFF",
";.	c #5573A2",
">.	c #74A3D0",
",.	c #E7F0FD",
"'.	c #B6D0EB",
").	c #85ACD6",
"!.	c #729ECC",
"~.	c #709CC9",
"{.	c #81A6CF",
"].	c #B3CAE5",
"^.	c #EAF3FD",
"/.	c #F7FAFF",
"(.	c #5572A1",
"_.	c #73A2CF",
":.	c #B4CEEA",
"<.	c #5A90C6",
"[.	c #80ADD5",
"}.	c #A3CBE6",
"|.	c #A4D0E9",
"1.	c #A2CEE8",
"2.	c #A2C9E3",
"3.	c #7BA5CD",
"4.	c #4F7BB1",
"5.	c #B7CAE1",
"6.	c #5471A0",
"7.	c #73A0CE",
"8.	c #91B7DE",
"9.	c #B9DEF1",
"0.	c #B3DEF0",
"a.	c #99CEE8",
"b.	c #A3D0E7",
"c.	c #B1DBEE",
"d.	c #B8DDEE",
"e.	c #6087B6",
"f.	c #4D6FA2",
"g.	c #729FCD",
"h.	c #B1CDE9",
"i.	c #6DA0D0",
"j.	c #C0E5F4",
"k.	c #9AD0E8",
"l.	c #73B8DD",
"m.	c #ACD3E9",
"n.	c #FFFFFF",
"o.	c #65A6CD",
"p.	c #92C3E0",
"q.	c #BFE5F5",
"r.	c #6186B3",
"s.	c #E6F0FD",
"t.	c #5B92C9",
"u.	c #B9DEF0",
"v.	c #9ACFE8",
"w.	c #6EB5DB",
"x.	c #61ACD4",
"y.	c #76B5D8",
"z.	c #94C1DB",
"A.	c #5195C2",
"B.	c #5C9BC5",
"C.	c #8FBEDC",
"D.	c #B8DBEE",
"E.	c #496B9E",
"F.	c #719ECB",
"G.	c #B0CCE9",
"H.	c #83B1D8",
"I.	c #78BBDE",
"J.	c #63ADD5",
"K.	c #61ABD3",
"L.	c #5BA3CD",
"M.	c #4D98C6",
"N.	c #549AC7",
"O.	c #4B91BF",
"P.	c #5394C1",
"Q.	c #508FBC",
"R.	c #649CC4",
"S.	c #AED6EB",
"T.	c #7799BF",
"U.	c #719DCA",
"V.	c #82ACD7",
"W.	c #A6CFE7",
"X.	c #68B0D6",
"Y.	c #61AAD3",
"Z.	c #5EA4CE",
"`.	c #6FACD1",
" +	c #FFFFFE",
".+	c #95BDD7",
"++	c #4C8DBB",
"@+	c #4E8CB9",
"#+	c #508BB8",
"$+	c #8BB9D8",
"%+	c #A3C5DD",
"&+	c #436396",
"*+	c #719BC8",
"=+	c #6F9FCF",
"-+	c #ABD5EB",
";+	c #85C0DF",
">+	c #62AAD3",
",+	c #5FA5CE",
"'+	c #5AA0CB",
")+	c #6EA9CE",
"!+	c #97BDD7",
"~+	c #4989B7",
"{+	c #4B88B6",
"]+	c #4985B4",
"^+	c #71A2C8",
"/+	c #A5C9E2",
"(+	c #436295",
"_+	c #709AC7",
":+	c #6E9DCD",
"<+	c #AAD4EA",
"[+	c #82BEDD",
"}+	c #5FA6CE",
"|+	c #5CA1CB",
"1+	c #579CC8",
"2+	c #6AA5CB",
"3+	c #94B9D5",
"4+	c #4585B4",
"5+	c #4984B3",
"6+	c #4782B1",
"7+	c #6EA0C6",
"8+	c #A4C9E1",
"9+	c #426093",
"0+	c #7099C7",
"a+	c #F0F7FE",
"b+	c #E4EFFE",
"c+	c #7EA7D1",
"d+	c #A7CEE6",
"e+	c #95C8E3",
"f+	c #61A3CD",
"g+	c #599DC9",
"h+	c #5497C2",
"i+	c #68A0C8",
"j+	c #93B7D3",
"k+	c #4380B1",
"l+	c #4781B0",
"m+	c #4881AF",
"n+	c #88B4D3",
"o+	c #A1C3DC",
"p+	c #405C8E",
"q+	c #6F98C5",
"r+	c #E3EEFE",
"s+	c #AAC6E5",
"t+	c #7FAAD1",
"u+	c #B1DAED",
"v+	c #6EABD0",
"w+	c #5698C3",
"x+	c #5193C0",
"y+	c #669DC5",
"z+	c #91B5D0",
"A+	c #417DAE",
"B+	c #437DAE",
"C+	c #5A8EBA",
"D+	c #ADD3EA",
"E+	c #7391B6",
"F+	c #6E97C4",
"G+	c #E1EDFE",
"H+	c #DDEBFD",
"I+	c #5383B8",
"J+	c #B9DEEF",
"K+	c #92C3DE",
"L+	c #4E8EBB",
"M+	c #6399C1",
"N+	c #8FB2CF",
"O+	c #3D79AB",
"P+	c #4D83B1",
"Q+	c #B7DAED",
"R+	c #405A8C",
"S+	c #6E96C2",
"T+	c #F2F8FE",
"U+	c #E0EDFE",
"V+	c #DFECFD",
"W+	c #A7C3E2",
"X+	c #628EBB",
"Y+	c #BFE6F4",
"Z+	c #91BFDD",
"`+	c #619BC3",
" @	c #679AC2",
".@	c #93B4D0",
"+@	c #548AB7",
"@@	c #C0E5F5",
"#@	c #55719F",
"$@	c #6B93C1",
"%@	c #F3F7FE",
"&@	c #E9F2FE",
"*@	c #E2EEFE",
"=@	c #E2EDFD",
"-@	c #E0EDFD",
";@	c #87A6CD",
">@	c #6088B7",
",@	c #B7DCED",
"'@	c #ADD5EB",
")@	c #93BFDA",
"!@	c #A5C7DF",
"~@	c #AAD2E8",
"{@	c #B6DAEC",
"]@	c #3C5589",
"^@	c #668EBD",
"/@	c #F5F9FE",
"(@	c #ABC2DE",
"_@	c #4B71A6",
":@	c #789BC1",
"<@	c #A0C4DD",
"[@	c #9DC5DF",
"}@	c #9DC5DE",
"|@	c #9DC1D9",
"1@	c #7292B7",
"2@	c #3F5A8E",
"3@	c #5E88B8",
"4@	c #F6FAFF",
"5@	c #F6F9FF",
"6@	c #F5F9FF",
"7@	c #F4F9FE",
"8@	c #F2F6FD",
"9@	c #B8C8DD",
"0@	c #6F89B1",
"a@	c #476699",
"b@	c #446396",
"c@	c #425F93",
"d@	c #5982B5",
"e@	c #5B84B4",
"f@	c #5F85B5",
"g@	c #6085B4",
"h@	c #6084B2",
"i@	c #5F82B2",
"j@	c #5D80B0",
"k@	c #5C7EAE",
"l@	c #5C7DAC",
"m@	c #5B7CAA",
"n@	c #5A7AA9",
"o@	c #5979A7",
"p@	c #5877A5",
"q@	c #5876A5",
"r@	c #5774A3",
"s@	c #5673A2",
"t@	c #5671A0",
"u@	c #54709F",
"v@	c #516C9B",
"w@	c #4D6797",
"x@	c #496394",
"    . + @ # # $ % & * = - ; > , ' ) ! ~ { ] ^ / ( _ : < [ }     ",
"    | 1 2 3 3 3 3 3 3 3 3 3 3 3 3 3 3 3 3 3 3 3 3 3 2 1 4 5     ",
"    6 3 7 8 9 0 a b c d e f g h i j k l l l l l l l l l 1 m     ",
"    n o 7 8 9 0 a b c d e f g h i j k l l l l l l l l l 3 p     ",
"    q r 7 8 9 0 a b c d e f g h i j k l l l l l l l l l s t     ",
"    u r 7 8 9 0 a b c d e f g h i j k l l l l l l l l l o v     ",
"    w r 7 8 9 0 a b c d e f g h i j k l l l l l l l l l o x     ",
"    y r z A B B B B B B B B B B B B B B B B C D E F C G o H     ",
"    I r z A B B B B B B B B B B B B B B B C D E F F E G J K     ",
"    L r z A B B B B B B B B B B B B B B C D E F M N F O J P     ",
"    Q r z A B B B B B B B B B B B B B C D E F M R S R A r T     ",
"    U r z A B B B B B B B B B B B B C D E F M R V W X Y Z `     ",
"     .r z A B B B B B B B B B B B C D E F M R V ....V C Z +.    ",
"    @.r z A B B B B B B B B B B C D E F M R V ..#.$...D Z %.    ",
"    &.r z A B B B B B B B B B C D E F M R V ..#.*.=.$.E -.;.    ",
"    >.r z A B B B B B B B B C D E F M R ,.'.).!.~.{.].^./.(.    ",
"    _.r z A B B B B B B B C D E F M R :.<.[.}.|.1.2.3.4.5.6.    ",
"    7.r z A B B B B B B C D E F M R 8.- 9.0.a.1.1.b.c.d.e.f.    ",
"    g.r z A B B B B B C D E F M R h.i.j.k.l.m.n.n.b.o.p.q.r.    ",
"    !.r z A B B B B C D E F M R s.t.u.v.w.x.y.n.n.z.A.B.C.D.E.  ",
"    F.r z A B B B C D E F M R V G.H.0.I.J.K.L.M.N.O.P.Q.R.S.T.  ",
"    U.r z A B B C D E F M R V ..V.W.a.X.Y.Z.`.n. +.+++@+#+$+%+&+",
"    *+r z A B C D E F M R V ..#.=+-+;+>+,+'+)+n.n.!+~+{+]+^+/+(+",
"    _+r z A C D E F M R V ..#.*.:+<+[+}+|+1+2+n.n.3+4+5+6+7+8+9+",
"    0+r z a+D E F M R V ..#.*.b+c+d+e+f+g+h+i+n.n.j+k+l+m+n+o+p+",
"    q+r G B E F M R V ..#.*.b+r+s+t+u+v+w+x+y+n.n.z+A+B+C+D+E+  ",
"    F+r G C F M R V ..#.*.b+r+G+H+I+J+K+B.L+M+n.n.N+O+P+n+Q+R+  ",
"    S+r T+E M R V ..#.*.b+r+G+U+V+W+X+Y+Z+`+ @n.n..@+@n+@@#@    ",
"    $@r %@C F N V &@..*.=.r+*@=@-@V+;@>@,@'@)@!@!@!@~@{@#@]@    ",
"    ^@o /@O Y D D E M N X X &@..#.*.=.(@_@:@<@[@}@|@1@2@        ",
"    3@1 o r Z -././.4@5@6@/@7@z G G G G 8@9@0@a@b@c@            ",
"    d@e@f@g@h@i@j@k@l@m@n@o@p@q@r@s@t@u@v@w@x@                  "};
