/* XPM */
static char * 1397816806_gear_xpm[] = {
"32 32 68 1",
" 	c None",
".	c #B5B5B5",
"+	c #C0C0C0",
"@	c #BFBFBF",
"#	c #C1C1C1",
"$	c #C6C6C6",
"%	c #D3D3D3",
"&	c #D2D2D2",
"*	c #D6D6D6",
"=	c #DBDBDB",
"-	c #C3C3C3",
";	c #C8C8C8",
">	c #D5D5D5",
",	c #D9D9D9",
"'	c #DFDFDF",
")	c #B7B7B7",
"!	c #CCCCCC",
"~	c #DDDDDD",
"{	c #E3E3E3",
"]	c #CFCFCF",
"^	c #D4D4D4",
"/	c #D8D8D8",
"(	c #B4B4B4",
"_	c #CBCBCB",
":	c #BEBEBE",
"<	c #CACACA",
"[	c #D0D0D0",
"}	c #E1E1E1",
"|	c #E5E5E5",
"1	c #E9E9E9",
"2	c #F7F7F7",
"3	c #F9F9F9",
"4	c #DEDEDE",
"5	c #D1D1D1",
"6	c #E8E8E8",
"7	c #ECECEC",
"8	c #EEEEEE",
"9	c #F3F3F3",
"0	c #F6F6F6",
"a	c #F5F5F5",
"b	c #C5C5C5",
"c	c #DADADA",
"d	c #F8F8F8",
"e	c #BABABA",
"f	c #F2F2F2",
"g	c #BCBCBC",
"h	c #D7D7D7",
"i	c #E0E0E0",
"j	c #E4E4E4",
"k	c #EBEBEB",
"l	c #F4F4F4",
"m	c #E7E7E7",
"n	c #CECECE",
"o	c #DCDCDC",
"p	c #E6E6E6",
"q	c #EDEDED",
"r	c #CDCDCD",
"s	c #F0F0F0",
"t	c #E2E2E2",
"u	c #C2C2C2",
"v	c #C7C7C7",
"w	c #C4C4C4",
"x	c #C9C9C9",
"y	c #BBBBBB",
"z	c #EFEFEF",
"A	c #FAFAFA",
"B	c #B8B8B8",
"C	c #B9B9B9",
"                                ",
"             .+@#+              ",
"             $%&*=-             ",
"             ;%>,';             ",
"      .-.   )!*,~{]    ^/       ",
"     (_^!):<[>/~}|1{^ /234      ",
"    (!&[5]5%^,4{67890700a3~     ",
"    b%[[[5[%,c*%^47d020aaad<    ",
"    e]5[[[^~,5[&^^%cfda0a3|     ",
"     g5[5%h^]5^h=ij4&kdldm      ",
"     #5[&n[][[%>,o'|p&q22>      ",
"     !5%;r&5[]5^/=4i|p>a9p      ",
"    g5%[b>%%&&/*5%o'}6=is1$     ",
" .b$!&/<[h>>^*    [~'{t%kp=]]-  ",
" #%&&>c<h,//5      *4'}]tt4o/[  ",
" u55>co!ooo=v      %==4no',>&r  ",
" u&>,4in}ii'u      ^/hc_,o>5[n  ",
" +h='}p5j|{{n     c%>>*;/h%&%r  ",
"  wv/p7htkp{ix   o>5%%5vh%<+uy  ",
"    x1z6/z6|ti^[^%][5&!]^5g     ",
"     mf2,j8mji'=*%5][]]%5!      ",
"     h009%6qpt4c*%5]]*^[&u      ",
"     cda2s>}km}=/>5[=h[[5!.     ",
"    >2aaa2l4*//>5r]h*[[[[&_     ",
"    4Al0a00d8'*5]%h^[55[[5[B    ",
"     |Aad929876ji=>&&_]555:     ",
"      j3m-,6kp}~,>&!u en[:      ",
"       &    x~4,>%-    Be       ",
"             ^~*5&@             ",
"             <h5[ne             ",
"              CBB.              ",
"                                "};
