/* XPM */
static char * 1397816721_edit_remove_xpm[] = {
"32 32 110 2",
"  	c None",
". 	c #C80000",
"+ 	c #CF0000",
"@ 	c #D20000",
"# 	c #D10000",
"$ 	c #D00000",
"% 	c #CE0000",
"& 	c #CD0000",
"* 	c #CC0000",
"= 	c #CB0000",
"- 	c #C90000",
"; 	c #C60000",
"> 	c #C50000",
", 	c #C40000",
"' 	c #C30000",
") 	c #C20000",
"! 	c #C10000",
"~ 	c #C00000",
"{ 	c #BF0000",
"] 	c #BE0000",
"^ 	c #BD0000",
"/ 	c #BC0000",
"( 	c #BB0000",
"_ 	c #BA0000",
": 	c #B80000",
"< 	c #E80000",
"[ 	c #F90000",
"} 	c #F80000",
"| 	c #F40000",
"1 	c #EE0000",
"2 	c #E20000",
"3 	c #DD0000",
"4 	c #D70000",
"5 	c #B90000",
"6 	c #B30000",
"7 	c #AD0000",
"8 	c #A70000",
"9 	c #A10000",
"0 	c #9B0000",
"a 	c #950000",
"b 	c #8F0000",
"c 	c #8A0000",
"d 	c #830000",
"e 	c #7F0000",
"f 	c #740000",
"g 	c #AB0000",
"h 	c #E50000",
"i 	c #F20000",
"j 	c #F00000",
"k 	c #EB0000",
"l 	c #E60000",
"m 	c #E10000",
"n 	c #DB0000",
"o 	c #D50000",
"p 	c #B70000",
"q 	c #B10000",
"r 	c #AA0000",
"s 	c #A40000",
"t 	c #9E0000",
"u 	c #970000",
"v 	c #910000",
"w 	c #8B0000",
"x 	c #850000",
"y 	c #7E0000",
"z 	c #790000",
"A 	c #6E0000",
"B 	c #A90000",
"C 	c #E30000",
"D 	c #DF0000",
"E 	c #DC0000",
"F 	c #D80000",
"G 	c #D30000",
"H 	c #890000",
"I 	c #7D0000",
"J 	c #780000",
"K 	c #6D0000",
"L 	c #A80000",
"M 	c #D40000",
"N 	c #B20000",
"O 	c #A20000",
"P 	c #9C0000",
"Q 	c #6A0000",
"R 	c #C70000",
"S 	c #AF0000",
"T 	c #A60000",
"U 	c #960000",
"V 	c #8C0000",
"W 	c #860000",
"X 	c #800000",
"Y 	c #7B0000",
"Z 	c #750000",
"` 	c #700000",
" .	c #690000",
"..	c #B50000",
"+.	c #AC0000",
"@.	c #A00000",
"#.	c #920000",
"$.	c #8D0000",
"%.	c #880000",
"&.	c #720000",
"*.	c #6B0000",
"=.	c #660000",
"-.	c #B40000",
";.	c #AE0000",
">.	c #A50000",
",.	c #940000",
"'.	c #900000",
").	c #840000",
"!.	c #770000",
"~.	c #760000",
"                                                                ",
"                                                                ",
"                                                                ",
"                                                                ",
"                                                                ",
"                                                                ",
"                                                                ",
"                                                                ",
"                                                                ",
"                                                                ",
"                                                                ",
"                                                                ",
"    . + @ @ # $ % & * = - . ; > , ' ) ! ~ { ] ^ / ( _ : )       ",
"    . < [ } | 1 < 2 3 4 # = > { 5 6 7 8 9 0 a b c d e f g       ",
"    . h i j 1 k l m n o + - ' ^ p q r s t u v w x y z A B       ",
"    . n C 2 m D E F G % - , ] 5 6 7 8 9 0 a b H d I J K L       ",
"    . # o o M G $ & - > ! / p N 7 L O P u v w x e z f Q L       ",
"    . R R . R ; , ) { ( p 6 S r T 9 P U v V W X Y Z `  .L       ",
"    . / 5 _ 5 : p ..N S +.L s @.P u #.$.%.d I J &.K *.=.L       ",
"    . -.;.S S ;.7 +.r 8 >.O t 0 u ,.'.V %.).e Y !.Z ~.&.g       ",
"      > , , , , , ' ' ) ! ~ ~ { { { { ] ] ] ] ] ^ ] ] ^ >       ",
"                                                                ",
"                                                                ",
"                                                                ",
"                                                                ",
"                                                                ",
"                                                                ",
"                                                                ",
"                                                                ",
"                                                                ",
"                                                                ",
"                                                                "};
