/* XPM */
static char * 1397816073_Gnome_Go_Up_32_xpm[] = {
"32 32 148 2",
"  	c None",
". 	c #456C9F",
"+ 	c #42699C",
"@ 	c #3B619D",
"# 	c #6A91BF",
"$ 	c #5A82B4",
"% 	c #355C99",
"& 	c #35608C",
"* 	c #6990BE",
"= 	c #4C7AB4",
"- 	c #3768A6",
"; 	c #557DB1",
"> 	c #305C88",
", 	c #2D548E",
"' 	c #678CBC",
") 	c #5381B8",
"! 	c #4776B1",
"~ 	c #3365A4",
"{ 	c #3B6BA8",
"] 	c #527AAE",
"^ 	c #2A518A",
"/ 	c #22508B",
"( 	c #6286B6",
"_ 	c #5784BA",
": 	c #4878B2",
"< 	c #4877B2",
"[ 	c #3566A5",
"} 	c #3163A3",
"| 	c #406FAA",
"1 	c #4D76A8",
"2 	c #1F498E",
"3 	c #1F4B88",
"4 	c #5B80B1",
"5 	c #5B87BC",
"6 	c #4777B2",
"7 	c #4A79B3",
"8 	c #3465A4",
"9 	c #3263A3",
"0 	c #4371AC",
"a 	c #466EA4",
"b 	c #5378AB",
"c 	c #5F8ABD",
"d 	c #4673AD",
"e 	c #3F689C",
"f 	c #496FA4",
"g 	c #628CBF",
"h 	c #4978B3",
"i 	c #3364A4",
"j 	c #4874AD",
"k 	c #386098",
"l 	c #436D95",
"m 	c #648DBE",
"n 	c #3566A4",
"o 	c #4773AC",
"p 	c #2F5A95",
"q 	c #355C9A",
"r 	c #648DBD",
"s 	c #4C7BB5",
"t 	c #3666A6",
"u 	c #4571AA",
"v 	c #2C538D",
"w 	c #315A90",
"x 	c #648BBA",
"y 	c #507FB8",
"z 	c #4A79B4",
"A 	c #4B7AB4",
"B 	c #3969A7",
"C 	c #426EA8",
"D 	c #264F8C",
"E 	c #284D89",
"F 	c #5E84B5",
"G 	c #658DBE",
"H 	c #5B84B8",
"I 	c #5C85B9",
"J 	c #5E87BA",
"K 	c #5380B7",
"L 	c #3B6AA8",
"M 	c #4471AB",
"N 	c #416EA9",
"O 	c #3F6CA8",
"P 	c #4672AC",
"Q 	c #3D68A2",
"R 	c #25517F",
"S 	c #234C87",
"T 	c #27508C",
"U 	c #254F8B",
"V 	c #26508B",
"W 	c #234C88",
"X 	c #4169A0",
"Y 	c #5985BA",
"Z 	c #3F6EAA",
"` 	c #345E99",
" .	c #224C88",
"..	c #244E8A",
"+.	c #234D89",
"@.	c #224D84",
"#.	c #3B649C",
"$.	c #3E6DA9",
"%.	c #305996",
"&.	c #5783BA",
"*.	c #3D6CA9",
"=.	c #305A96",
"-.	c #3A639C",
";.	c #5783B9",
">.	c #3C6CA8",
",.	c #2F5995",
"'.	c #3A649F",
").	c #5582B9",
"!.	c #2E5995",
"~.	c #39629C",
"{.	c #5582BA",
"].	c #3A6AA7",
"^.	c #2E5B9A",
"/.	c #355C92",
"(.	c #5482BA",
"_.	c #3A69A8",
":.	c #2E5A9A",
"<.	c #355D93",
"[.	c #5381BA",
"}.	c #4979B3",
"|.	c #3869A8",
"1.	c #2C5795",
"2.	c #5382BB",
"3.	c #4A7AB4",
"4.	c #3465A5",
"5.	c #386AA8",
"6.	c #2B5693",
"7.	c #335B94",
"8.	c #5583BC",
"9.	c #507DB7",
"0.	c #4F7DB7",
"a.	c #4F7DB6",
"b.	c #4C7AB5",
"c.	c #3A6AA9",
"d.	c #3868A7",
"e.	c #3768A7",
"f.	c #3767A7",
"g.	c #3869A9",
"h.	c #2A5695",
"i.	c #1D4072",
"j.	c #21477D",
"k.	c #21467A",
"l.	c #21457A",
"m.	c #20457A",
"n.	c #1F4479",
"o.	c #1E4379",
"p.	c #1E457B",
"q.	c #1E4279",
"                                                                ",
"                                                                ",
"                                                                ",
"                                                                ",
"                                                                ",
"                                                                ",
"                              . +                               ",
"                            @ # $ %                             ",
"                          & * = - ; >                           ",
"                        , ' ) ! ~ { ] ^                         ",
"                      / ( _ : < [ } | 1 2                       ",
"                    3 4 5 6 7 < [ 8 9 0 a                       ",
"                    b c < 7 7 < [ 8 8 9 d e                     ",
"                  f g h 7 7 7 < [ 8 8 8 i j k                   ",
"                l m 7 7 7 7 7 < [ 8 8 8 8 n o p                 ",
"              q r s h 7 7 7 7 < [ 8 8 8 8 i t u v               ",
"            w x y z A 7 7 7 7 < [ 8 8 8 8 8 ~ B C D             ",
"          E F G H I J K h 7 7 < [ 8 8 ~ L M N O P Q R           ",
"          S T U V W X Y h 7 7 < [ 8 8 i Z `  ...+...@.          ",
"                    #._ h 7 7 < [ 8 8 i $.%.                    ",
"                    #.&.h 7 7 < [ 8 8 i *.=.                    ",
"                    -.;.h 7 7 < [ 8 8 i >.,.                    ",
"                    '.).h 7 7 < [ 8 8 ~ { !.                    ",
"                    ~.{.h 7 7 < [ 8 8 ~ ].^.                    ",
"                    /.(.h 7 7 < [ 8 8 8 _.:.                    ",
"                    <.[.}.7 7 < [ 8 8 8 |.1.                    ",
"                    /.2.3.A A h [ 8 8 4.5.6.                    ",
"                    7.8.9.0.a.b.c.d.e.f.g.h.                    ",
"                    i.j.k.l.m.m.n.o.n.n.p.q.                    ",
"                                                                ",
"                                                                ",
"                                                                "};
