/* XPM */
static char * biohazard_xpm[] = {
"32 32 3 1",
" 	c None",
".	c #FF0000",
"+	c #FE0000",
"                                ",
"                                ",
"          .          +          ",
"         +            +         ",
"        ..            ++        ",
"        +              .        ",
"       .+              .+       ",
"       +.              +.       ",
"       +++             +.       ",
"       .++  .....+++  .+.       ",
"       +++ .+...++... .++       ",
"       .+++ .      + +..+       ",
"       +.+.+        .+++.       ",
"     ++++...++    +.++.+...     ",
"   ++..+++.+++..+++.+..+.+...   ",
"  ++.+  .+...++  ++......+.++.  ",
"  ..       +.+    +..+      +.  ",
" +.     +.  ..    +.  .+     .+ ",
" +      ..            +.      . ",
"+       +.    ....    .+       .",
".       ++.   ...+   ..+       +",
"         .+.  ...+  ..+         ",
"          ... .+.. .+.          ",
"           ++ ++.. ++           ",
"              +...              ",
"             ++++.+             ",
"            .++.++.+            ",
"           .++.  .+++           ",
"    ..    +.+.    .+..    ..    ",
"      +.+..+        .....+      ",
"                                ",
"                                "};
