/* XPM */
static char * nuclearsymbol_xpm[] = {
"32 32 175 2",
"  	c None",
". 	c #000000",
"+ 	c #100D04",
"@ 	c #191506",
"# 	c #1B1707",
"$ 	c #161206",
"% 	c #0A0802",
"& 	c #2A230B",
"* 	c #5E501A",
"= 	c #847124",
"- 	c #A1892D",
"; 	c #B19631",
"> 	c #B49932",
", 	c #AC922F",
"' 	c #97802A",
") 	c #756320",
"! 	c #493E14",
"~ 	c #110F04",
"{ 	c #221D09",
"] 	c #917B28",
"^ 	c #CAAB38",
"/ 	c #EBC841",
"( 	c #F9D445",
"_ 	c #F7D244",
": 	c #F6D144",
"< 	c #F6D244",
"[ 	c #F8D345",
"} 	c #DDBC3D",
"| 	c #B79C32",
"1 	c #62541B",
"2 	c #070601",
"3 	c #27220A",
"4 	c #C8AA37",
"5 	c #F1CD43",
"6 	c #F0CC42",
"7 	c #F2CE43",
"8 	c #F4D044",
"9 	c #8C7726",
"0 	c #796721",
"a 	c #EDC941",
"b 	c #F2CD43",
"c 	c #D2B33A",
"d 	c #28220B",
"e 	c #100E04",
"f 	c #C4A736",
"g 	c #ECC941",
"h 	c #7F6B22",
"i 	c #5C4E19",
"j 	c #E9C640",
"k 	c #CCAE38",
"l 	c #030200",
"m 	c #B29831",
"n 	c #F3CE43",
"o 	c #493F14",
"p 	c #26200A",
"q 	c #A38B2D",
"r 	c #7A6822",
"s 	c #FFD947",
"t 	c #FBD646",
"u 	c #FDD746",
"v 	c #FBD645",
"w 	c #E8C540",
"x 	c #1B1607",
"y 	c #080702",
"z 	c #9E872C",
"A 	c #60521A",
"B 	c #473C13",
"C 	c #8A7527",
"D 	c #5C4D19",
"E 	c #010100",
"F 	c #25200A",
"G 	c #433912",
"H 	c #0F0D04",
"I 	c #030301",
"J 	c #867224",
"K 	c #FED847",
"L 	c #FFD946",
"M 	c #E1BF3E",
"N 	c #362E0E",
"O 	c #020100",
"P 	c #0C0A03",
"Q 	c #0D0B03",
"R 	c #2C260C",
"S 	c #FAD445",
"T 	c #B89C33",
"U 	c #020200",
"V 	c #080602",
"W 	c #060501",
"X 	c #191607",
"Y 	c #857125",
"Z 	c #9F872C",
"` 	c #A88E2E",
" .	c #4D4115",
"..	c #FED846",
"+.	c #F4CF43",
"@.	c #D5B63B",
"#.	c #776421",
"$.	c #A28A2D",
"%.	c #A58C2E",
"&.	c #564918",
"*.	c #241F0A",
"=.	c #C8AB37",
"-.	c #FFDB47",
";.	c #746220",
">.	c #110E04",
",.	c #E4C23F",
"'.	c #FFDC48",
").	c #847024",
"!.	c #E5C33F",
"~.	c #FFDA47",
"{.	c #806C23",
"].	c #171306",
"^.	c #AE9430",
"/.	c #E2C03F",
"(.	c #332B0E",
"_.	c #B39831",
":.	c #D0B039",
"<.	c #816E24",
"[.	c #786621",
"}.	c #F5D044",
"|.	c #68581D",
"1.	c #030201",
"2.	c #8B7626",
"3.	c #D4B33A",
"4.	c #1A1707",
"5.	c #726220",
"6.	c #EDCA42",
"7.	c #DCBB3D",
"8.	c #483D13",
"9.	c #EAC741",
"0.	c #D2B23A",
"a.	c #584B18",
"b.	c #F3CF43",
"c.	c #BEA134",
"d.	c #1A1607",
"e.	c #211C09",
"f.	c #C3A636",
"g.	c #F0CD43",
"h.	c #423712",
"i.	c #B19731",
"j.	c #EFCB42",
"k.	c #897526",
"l.	c #7C6922",
"m.	c #FAD545",
"n.	c #9C852B",
"o.	c #221C09",
"p.	c #D6B63B",
"q.	c #0E0C04",
"r.	c #C2A635",
"s.	c #DEBD3E",
"t.	c #73621F",
"u.	c #6F5E1E",
"v.	c #E7C440",
"w.	c #FCD646",
"x.	c #6A5A1D",
"y.	c #131005",
"z.	c #C6A836",
"A.	c #372F0F",
"B.	c #EECB41",
"C.	c #BB9F34",
"D.	c #1D1908",
"E.	c #AD942F",
"F.	c #050301",
"G.	c #2C250C",
"H.	c #DABA3C",
"I.	c #EDC942",
"J.	c #120F04",
"K.	c #A48B2D",
"L.	c #978029",
"M.	c #030300",
"N.	c #161205",
"O.	c #67581C",
"P.	c #141105",
"Q.	c #3C3310",
"R.	c #594B18",
"                                                                ",
"                      . . . . . . . . . .                       ",
"                  . . . . . + @ # $ % . . . .                   ",
"              . . . . & * = - ; > , ' ) ! ~ . . .               ",
"            . . . { ] ^ / ( _ : : < [ _ } | 1 2 . . .           ",
"          . . . . 3 4 _ 5 6 5 5 5 5 6 5 7 8 9 . . . . .         ",
"        . . . . . . 0 a 5 5 5 5 5 5 5 5 b c d . . . . . .       ",
"      . . . . . . . e f 5 6 5 5 5 5 5 6 g h . . . . . . .       ",
"      . . . . . . . . i j 6 5 5 5 5 6 5 k l . . . . . . . .     ",
"    . . . . . . . . . . m n 6 5 5 5 5 5 o . . . . . . . . .     ",
"    . . . . . . . . . . p / 5 5 5 6 [ q . . . . . . . . . . .   ",
"  . . . . . . . . . . . . r s t u v w x . . . . . . . . . . .   ",
"  . . . . . . . . . . . . y z A B C D . . . . . . . . . . . .   ",
"  . . . . . . . . . . . . . E F G H . . . . . . . . . . . . . . ",
"  . . . . . . . . . . . . I J K L M N . . . . . . . . . . . . . ",
"  . O % P P P P P P P Q . R L 5 6 S T U V P P P P P P P P W . . ",
"  . X Y - Z Z Z Z Z Z ` F  ...6 6 +.@.. #.$.Z Z Z Z Z Z %.&.. . ",
"  . *.=.v _ _ _ _ _ _ -.;.>.,.S 8 '.).. !.( _ _ _ _ _ _ ~.{.. . ",
"  . ].^.: 5 5 5 5 5 5 7 /.e (._.:.<.U [.}.5 5 5 5 5 5 5 5 |.. . ",
"  . 1.2.( 6 5 5 5 5 5 5 b 3.4.. l . 5.6.5 6 5 5 5 5 5 7 7.8.. . ",
"  . . i 9.5 6 5 5 5 5 6 7 0.. . . . a.a 5 5 5 5 5 5 5 b.c.d..   ",
"  . . e.f.b.6 5 5 5 g.5 7 h.. . . . . i.}.6 5 5 5 5 5 j.k.. .   ",
"    . . l.6.5 5 5 5 6 m.n.. . . . . . o.w 7 6 5 5 5 5 p.F . .   ",
"    . . q.r.b 6 5 6 +.s.e.. . . . . . . t...6 5 5 6 8 u.. .     ",
"      . . R v.7 6 5 w.x.E . . . . . . . y.z.: 6 6 ( Z . . .     ",
"      . . . A.B.7 : C.D.. . . . . . . . .  .: 5 ( E.F.. .       ",
"        . . . G.H.I.i . . . . . . . . . . J.K.( L.M.. .         ",
"          . . . N.O.P.. . . . . . . . . . . Q.R.. . . .         ",
"            . . . . . . . . . . . . . . . . . . . .             ",
"                . . . . . . . . . . . . . . . . .               ",
"                  . . . . . . . . . . . . . .                   ",
"                        . . . . . . . . .                       "};
