/* XPM */
static char * spider_xpm[] = {
"32 32 7 1",
" 	c None",
".	c #C4CCDC",
"+	c #040404",
"@	c #FCFC04",
"#	c #848484",
"$	c #C4C4C4",
"%	c #FCFCFC",
"                                ",
"            +      +            ",
"    +       +      +       +    ",
"     +     +        +     +     ",
"     +     +        +     +     ",
"      +   +          +   +      ",
"      +   +   +  +   +   +      ",
"       +  +  ++  ++  +  +       ",
"       +  +  ++##++  +  +       ",
"        +  + +#$$#+ +  +        ",
"         +  +#$$$$#+  +         ",
"          ++$$#$$#$$++          ",
"       +++++$$$$$$$$+++++       ",
"      +     $#$$$$#$     +      ",
"     +    +++$$$$$$+++    +     ",
"    +    +   +$$$$+   +    +    ",
"    +   +    @++++@    +   +    ",
"   +   +    +%@++@%+    +   +   ",
"   +  +     +%@++@%+     +  +   ",
"  +   +    +@@++++@@+    +   +  ",
"      +    @++++++++@    +      ",
"      +   @+@@+@@+@@+@   +      ",
"      +   +@+++@@+++@+   +      ",
"      +   ++@@@@@@@@++   +      ",
"      +   @+++@@@@+++@   +      ",
"      +   +++++@@+++++   +      ",
"      +   +@@++@@++@@+   +      ",
"           +@@@@@@@@+           ",
"           ++++@@++++           ",
"            @@++++@@            ",
"              @@@@              ",
"                                "};
