/* XPM */
static char * insect01_xpm[] = {
"32 32 7 1",
" 	c None",
".	c #C0C0C0",
"+	c #000000",
"@	c #000080",
"#	c #008080",
"$	c #0000FF",
"%	c #00FFFF",
"                                ",
"                                ",
"                                ",
"             +    +             ",
"             +    +             ",
"     @@#     + @@ +     #@@     ",
"     ##@@#   #+##+#   #@@##     ",
"         @@  +$@$++  @@         ",
"          @  #+@%+# #@          ",
"           @  #@$#  @           ",
"           #@ +@++ @            ",
"            #@$@%+@             ",
"              +@++              ",
"             ##@$##             ",
"        #@@@ #+@++# @@@#        ",
"        @  #@@$@%+@@#  @        ",
"       #@    #+@$+#    @#       ",
"       @      #@%+      @       ",
"       @      +@++      @       ",
"      #@    #@+@#+@#    @#      ",
"     #@    #@  @+  @#    @#     ",
"     #@   #@  #@+#  @#   @#     ",
"          @# #+@$@  #@          ",
"          @# +$@%@+ #@          ",
"           @ +$@$#+ @           ",
"          #@ +$@%#+ @#          ",
"         #@  ++@+#+  @#         ",
"        #@   +++#++   @#        ",
"      ##@     ++++     @##      ",
"      #@                @#      ",
"                                ",
"                                "};
