/* XPM */
static char * debugconsole_xpm[] = {
"32 32 9 1",
" 	c None",
".	c #555555",
"+	c #7A8B89",
"@	c #FFFFFF",
"#	c #FEFEFE",
"$	c #E3E1E0",
"%	c #EDEBEA",
"&	c #EBE9E8",
"*	c #E9E7E6",
"                                ",
"                                ",
"  ............................  ",
"  .++++++++++++++++++++++++++.  ",
"  .++++++++++++++++++++++++++.  ",
"  ............................  ",
"  .@###########@@@##@@@@@@@@$.  ",
"  .@%%%%%%%%%%%%%%%%%%%%%%%%$.  ",
"  .@%%%%%%%%%%%%%%%%%%%%%%%%$.  ",
"  .@%%%%%%%%%%%%%%%%%%%%%%%%$.  ",
"  .@%%%%%%%%%%%&**&%%%%%%%%%$.  ",
"  .@%%%%%%%%%%%%%%%%%%%%%%%%$.  ",
"  .@%%%%%%%%%%%%%%%%%%%%%%%%$.  ",
"  .@%%%%%%%%%%%%%%%%%%%%%%%%$.  ",
"  .@%%%%%%%%%%%%%%%%%%%%%%%%$.  ",
"  .@%%%%%%%%%%%&**&%%%%%%%%%$.  ",
"  .@%%%%%%%%%%%%%%%%%%%%%%%%$.  ",
"  .@%%%%%%%%%%%%%%%%%%%%%%%%$.  ",
"  .@%%%%%%%%%%%%%%%%%%%%%%%%$.  ",
"  .@%%%%%%%%%%%%%%%%%%%%%%%%$.  ",
"  .@%%%%%%%%%%%%%%%%%%%%%%%%$.  ",
"  .@%%%%%%%%%%%%%%%%%%%%%%%%$.  ",
"  .@%%%%%%%%%%%%%%%%%%%%%%%%$.  ",
"  .@%%%%%%%%%%%&**&%%%%%%%%%$.  ",
"  .@%%%%%%%%%%%%%%%%%%%%%%%%$.  ",
"  .@%%%%%%%%%%%&**&%%%%%%%%%$.  ",
"  .@%%%%%%%%%%%%%%%%%%%%%%%%$.  ",
"  .@%%%%%%%%%%%%%%%%%%%%%%%%$.  ",
"  .$$$$$$$$$$$$$$$$$$$$$$$$$$.  ",
"  ............................  ",
"                                ",
"                                "};
