/* XPM */
static char * refresh_xpm[] = {
"16 16 27 1",
" 	c None",
".	c #00CC00",
"+	c #18B301",
"@	c #33BD01",
"#	c #31D700",
"$	c #24B701",
"%	c #BEF100",
"&	c #30BC01",
"*	c #62E100",
"=	c #80DC00",
"-	c #BFF500",
";	c #92EC00",
">	c #3CC201",
",	c #A8F000",
"'	c #C3F600",
")	c #D7FA00",
"!	c #2EBD01",
"~	c #91EB00",
"{	c #36C101",
"]	c #ACF100",
"^	c #74DA00",
"/	c #ABF100",
"(	c #82E800",
"_	c #2DBB01",
":	c #B0EE00",
"<	c #56DF00",
"[	c #2CD500",
"                ",
"                ",
"        ...     ",
"   +    ....    ",
"  +@+   ..##.   ",
"  $%&     .*..  ",
" +=-=+     .;.  ",
"+>,,,>+    .'.  ",
"  .).    +!~~~{+",
"  .].     +^/^+ ",
"   .(.     _:_  ",
"   .<<...  +&+  ",
"    ..[[.   +   ",
"      ...       ",
"                ",
"                "};
