/* XPM */
static char * xfce4_settings_xpm[] = {
"16 16 81 1",
" 	c None",
".	c #878787",
"+	c #797979",
"@	c #9B9B9B",
"#	c #E5E5E5",
"$	c #EDEDED",
"%	c #909090",
"&	c #8E4109",
"*	c #C96613",
"=	c #683207",
"-	c #818181",
";	c #F8F8F8",
">	c #EEEEEE",
",	c #8A3300",
"'	c #FFA124",
")	c #FF9020",
"!	c #D8630A",
"~	c #464646",
"{	c #FFFFFF",
"]	c #686868",
"^	c #883300",
"/	c #FF9515",
"(	c #FFCC33",
"_	c #FF7E14",
":	c #AC4400",
"<	c #CECECE",
"[	c #7E7E7E",
"}	c #939393",
"|	c #DADAD9",
"1	c #9DA1A3",
"2	c #873100",
"3	c #FF9414",
"4	c #FF821A",
"5	c #AF4A03",
"6	c #959595",
"7	c #CDCDCD",
"8	c #D2D2D2",
"9	c #A2A2A2",
"0	c #818585",
"a	c #8E8D90",
"b	c #852F04",
"c	c #FE9113",
"d	c #B04B03",
"e	c #4D4D4D",
"f	c #A3A3A3",
"g	c #6E6F6F",
"h	c #687075",
"i	c #8D421B",
"j	c #FB8F0E",
"k	c #AC4801",
"l	c #4C4C4C",
"m	c #6A3D2C",
"n	c #F36600",
"o	c #FF8518",
"p	c #B24703",
"q	c #210C07",
"r	c #835B4D",
"s	c #AA3E04",
"t	c #B22F30",
"u	c #700E12",
"v	c #676868",
"w	c #000000",
"x	c #3D0309",
"y	c #D94F4F",
"z	c #8E1111",
"A	c #696969",
"B	c #721010",
"C	c #D03D3D",
"D	c #910F0F",
"E	c #761B1B",
"F	c #7F1616",
"G	c #C32D2D",
"H	c #660D0D",
"I	c #801010",
"J	c #6C6C6C",
"K	c #7B1616",
"L	c #951D1D",
"M	c #671010",
"N	c #404040",
"O	c #171717",
"P	c #3A0909",
"                ",
"    .+          ",
"   @#$%     &*= ",
"    -;>    ,')! ",
"    ~#{]  ^/(_: ",
"  <[}<|1 23(45  ",
"  67890abc(4d   ",
"   efghij(4k    ",
"    l  mnopq    ",
"       {rstu    ",
"      {vwxtyz   ",
"     {A   BCyDE ",
"   {{A     FGHI ",
"  J{{       KLM ",
"  N}O        P  ",
"                "};
